<svg width="323" height="241" viewBox="0 0 323 241" fill="none" xmlns="http://www.w3.org/2000/svg">
<rect y="42" width="323" height="199" rx="40" fill="url(#paint0_linear_6_110)"/>
<path d="M105.242 140.406L92.7235 0H230.276L217.745 140.384L161.416 156L105.242 140.406Z" fill="#2D449F"/>
<path d="M207.017 131.445L217.726 11.48H161.5V144.064L207.017 131.445Z" fill="#3D60B0"/>
<path d="M121.421 63.5547L122.965 80.7748H161.5V63.5547H121.421ZM119.885 45.9209H161.5V28.7006H118.32L119.885 45.9209ZM161.5 108.277L161.424 108.297L142.246 103.119L141.02 89.3849H123.734L126.147 116.423L161.421 126.216L161.5 126.194V108.277Z" fill="#EBEBEB"/>
<path d="M161.441 63.5547V80.7748H182.645L180.647 103.108L161.441 108.292V126.207L196.743 116.423L197.002 113.514L201.048 68.1787L201.469 63.5547L204.577 28.7006H161.441V45.9209H185.706L184.138 63.5547H161.441Z" fill="white"/>
<path d="M67.872 178.476H73.308L75.972 186.648L78.636 178.476H84.108L79.752 190.356L82.344 197.16L88.752 178.44H95.196L85.224 204H80.112L75.972 193.992L71.868 204H66.72L56.784 178.44H63.192L69.636 197.16L72.156 190.356L67.872 178.476ZM103.418 204.36C101.81 204.36 100.382 204.108 99.1343 203.604C97.8863 203.076 96.8183 202.368 95.9303 201.48C95.0663 200.592 94.4063 199.572 93.9503 198.42C93.4943 197.244 93.2663 196.02 93.2663 194.748C93.2663 192.924 93.6623 191.268 94.4543 189.78C95.2703 188.268 96.4343 187.056 97.9463 186.144C99.4583 185.208 101.282 184.74 103.418 184.74C105.554 184.74 107.366 185.196 108.854 186.108C110.366 187.02 111.518 188.22 112.31 189.708C113.102 191.172 113.498 192.768 113.498 194.496C113.498 194.832 113.474 195.168 113.426 195.504C113.402 195.816 113.378 196.092 113.354 196.332H99.3863C99.4583 197.172 99.6863 197.88 100.07 198.456C100.478 199.032 100.994 199.476 101.618 199.788C102.242 200.076 102.902 200.22 103.598 200.22C104.462 200.22 105.266 200.016 106.01 199.608C106.778 199.2 107.306 198.648 107.594 197.952L112.49 199.32C112.01 200.304 111.326 201.18 110.438 201.948C109.574 202.692 108.542 203.28 107.342 203.712C106.166 204.144 104.858 204.36 103.418 204.36ZM99.2423 192.804H107.45C107.354 192.012 107.126 191.328 106.766 190.752C106.406 190.152 105.926 189.696 105.326 189.384C104.726 189.048 104.066 188.88 103.346 188.88C102.602 188.88 101.93 189.048 101.33 189.384C100.754 189.696 100.286 190.152 99.9263 190.752C99.5663 191.328 99.3383 192.012 99.2423 192.804ZM127.449 204.36C126.009 204.36 124.749 204.06 123.669 203.46C122.589 202.836 121.737 201.972 121.113 200.868V204H116.109V177.72H121.869V188.196C122.493 187.092 123.321 186.24 124.353 185.64C125.409 185.04 126.645 184.74 128.061 184.74C129.261 184.74 130.353 185.004 131.337 185.532C132.345 186.036 133.209 186.744 133.929 187.656C134.673 188.544 135.249 189.588 135.657 190.788C136.065 191.964 136.269 193.248 136.269 194.64C136.269 196.008 136.041 197.28 135.585 198.456C135.153 199.632 134.541 200.664 133.749 201.552C132.957 202.44 132.021 203.136 130.941 203.64C129.885 204.12 128.721 204.36 127.449 204.36ZM125.829 199.5C126.477 199.5 127.077 199.38 127.629 199.14C128.205 198.876 128.697 198.528 129.105 198.096C129.513 197.664 129.825 197.16 130.041 196.584C130.257 195.984 130.365 195.336 130.365 194.64C130.365 193.752 130.185 192.924 129.825 192.156C129.465 191.388 128.961 190.776 128.313 190.32C127.689 189.864 126.957 189.636 126.117 189.636C125.517 189.636 124.941 189.78 124.389 190.068C123.837 190.356 123.345 190.752 122.913 191.256C122.481 191.736 122.133 192.288 121.869 192.912V196.872C122.061 197.28 122.301 197.652 122.589 197.988C122.877 198.3 123.189 198.564 123.525 198.78C123.885 198.996 124.257 199.176 124.641 199.32C125.049 199.44 125.445 199.5 125.829 199.5ZM148.007 204V178.44H157.547C160.355 178.44 162.695 179.016 164.567 180.168C166.463 181.296 167.891 182.832 168.851 184.776C169.811 186.696 170.291 188.832 170.291 191.184C170.291 193.776 169.763 196.032 168.707 197.952C167.651 199.872 166.163 201.36 164.243 202.416C162.347 203.472 160.115 204 157.547 204H148.007ZM164.279 191.184C164.279 189.696 164.015 188.388 163.487 187.26C162.959 186.108 162.191 185.22 161.183 184.596C160.175 183.948 158.963 183.624 157.547 183.624H153.911V198.816H157.547C158.987 198.816 160.199 198.492 161.183 197.844C162.191 197.172 162.959 196.26 163.487 195.108C164.015 193.932 164.279 192.624 164.279 191.184ZM182.344 204.36C180.736 204.36 179.308 204.108 178.06 203.604C176.812 203.076 175.744 202.368 174.856 201.48C173.992 200.592 173.332 199.572 172.876 198.42C172.42 197.244 172.192 196.02 172.192 194.748C172.192 192.924 172.588 191.268 173.38 189.78C174.196 188.268 175.36 187.056 176.872 186.144C178.384 185.208 180.208 184.74 182.344 184.74C184.48 184.74 186.292 185.196 187.78 186.108C189.292 187.02 190.444 188.22 191.236 189.708C192.028 191.172 192.424 192.768 192.424 194.496C192.424 194.832 192.4 195.168 192.352 195.504C192.328 195.816 192.304 196.092 192.28 196.332H178.312C178.384 197.172 178.612 197.88 178.996 198.456C179.404 199.032 179.92 199.476 180.544 199.788C181.168 200.076 181.828 200.22 182.524 200.22C183.388 200.22 184.192 200.016 184.936 199.608C185.704 199.2 186.232 198.648 186.52 197.952L191.416 199.32C190.936 200.304 190.252 201.18 189.364 201.948C188.5 202.692 187.468 203.28 186.268 203.712C185.092 204.144 183.784 204.36 182.344 204.36ZM178.168 192.804H186.376C186.28 192.012 186.052 191.328 185.692 190.752C185.332 190.152 184.852 189.696 184.252 189.384C183.652 189.048 182.992 188.88 182.272 188.88C181.528 188.88 180.856 189.048 180.256 189.384C179.68 189.696 179.212 190.152 178.852 190.752C178.492 191.328 178.264 192.012 178.168 192.804ZM202.271 204.36C200.663 204.36 199.091 204.096 197.555 203.568C196.019 203.04 194.723 202.26 193.667 201.228L195.647 197.592C196.799 198.432 197.915 199.068 198.995 199.5C200.099 199.932 201.131 200.148 202.091 200.148C202.835 200.148 203.411 200.028 203.819 199.788C204.227 199.548 204.431 199.176 204.431 198.672C204.431 198.312 204.311 198.036 204.071 197.844C203.831 197.628 203.459 197.436 202.955 197.268C202.475 197.1 201.875 196.92 201.155 196.728C199.715 196.248 198.515 195.78 197.555 195.324C196.595 194.868 195.875 194.316 195.395 193.668C194.915 192.996 194.675 192.132 194.675 191.076C194.675 189.804 194.987 188.7 195.611 187.764C196.259 186.804 197.171 186.06 198.347 185.532C199.523 185.004 200.927 184.74 202.559 184.74C203.855 184.74 205.115 184.944 206.339 185.352C207.587 185.76 208.751 186.444 209.831 187.404L207.599 191.004C206.519 190.26 205.559 189.72 204.719 189.384C203.879 189.048 203.063 188.88 202.271 188.88C201.863 188.88 201.491 188.928 201.155 189.024C200.819 189.12 200.543 189.288 200.327 189.528C200.135 189.744 200.039 190.032 200.039 190.392C200.039 190.752 200.135 191.04 200.327 191.256C200.543 191.472 200.867 191.664 201.299 191.832C201.755 191.976 202.319 192.156 202.991 192.372C204.551 192.828 205.847 193.296 206.879 193.776C207.911 194.232 208.679 194.808 209.183 195.504C209.711 196.176 209.975 197.076 209.975 198.204C209.975 200.124 209.279 201.636 207.887 202.74C206.519 203.82 204.647 204.36 202.271 204.36ZM212.929 204V185.1H218.689V204H212.929ZM212.929 182.94V177.72H218.689V182.94H212.929ZM229.976 204.072C228.728 204.072 227.588 203.832 226.556 203.352C225.524 202.848 224.636 202.164 223.892 201.3C223.172 200.412 222.608 199.392 222.2 198.24C221.792 197.088 221.588 195.852 221.588 194.532C221.588 193.14 221.804 191.856 222.236 190.68C222.668 189.504 223.268 188.472 224.036 187.584C224.828 186.672 225.752 185.976 226.808 185.496C227.888 184.992 229.076 184.74 230.372 184.74C231.788 184.74 233.036 185.052 234.116 185.676C235.196 186.276 236.06 187.116 236.708 188.196V185.1H241.712V202.704C241.712 204.624 241.244 206.28 240.308 207.672C239.396 209.064 238.112 210.132 236.456 210.876C234.824 211.644 232.928 212.028 230.768 212.028C228.752 212.028 227.012 211.692 225.548 211.02C224.108 210.372 222.848 209.448 221.768 208.248L224.864 205.116C225.56 205.908 226.424 206.532 227.456 206.988C228.488 207.468 229.592 207.708 230.768 207.708C231.704 207.708 232.568 207.54 233.36 207.204C234.152 206.868 234.776 206.328 235.232 205.584C235.712 204.84 235.952 203.88 235.952 202.704V200.868C235.376 201.9 234.536 202.692 233.432 203.244C232.352 203.796 231.2 204.072 229.976 204.072ZM231.956 199.5C232.412 199.5 232.832 199.44 233.216 199.32C233.624 199.176 233.996 198.996 234.332 198.78C234.668 198.54 234.98 198.264 235.268 197.952C235.556 197.616 235.784 197.256 235.952 196.872V192.912C235.712 192.24 235.364 191.664 234.908 191.184C234.452 190.68 233.948 190.296 233.396 190.032C232.844 189.768 232.268 189.636 231.668 189.636C231.068 189.636 230.504 189.768 229.976 190.032C229.448 190.296 228.992 190.68 228.608 191.184C228.248 191.664 227.96 192.204 227.744 192.804C227.552 193.404 227.456 194.028 227.456 194.676C227.456 195.372 227.564 196.008 227.78 196.584C228.02 197.16 228.344 197.676 228.752 198.132C229.16 198.564 229.64 198.9 230.192 199.14C230.744 199.38 231.332 199.5 231.956 199.5ZM263.876 204H258.116V193.38C258.116 192.132 257.876 191.232 257.396 190.68C256.94 190.104 256.328 189.816 255.56 189.816C255.032 189.816 254.492 189.96 253.94 190.248C253.388 190.536 252.884 190.932 252.428 191.436C251.996 191.94 251.66 192.516 251.42 193.164V204H245.66V185.1H250.844V188.268C251.324 187.524 251.924 186.888 252.644 186.36C253.364 185.832 254.192 185.436 255.128 185.172C256.064 184.884 257.084 184.74 258.188 184.74C259.412 184.74 260.396 184.968 261.14 185.424C261.908 185.856 262.484 186.432 262.868 187.152C263.276 187.872 263.54 188.652 263.66 189.492C263.804 190.308 263.876 191.112 263.876 191.904V204Z" fill="white"/>
<defs>
<linearGradient id="paint0_linear_6_110" x1="223.5" y1="42" x2="90.5" y2="251" gradientUnits="userSpaceOnUse">
<stop stop-color="#2D3C27"/>
<stop offset="1" stop-color="#22331A"/>
</linearGradient>
</defs>
</svg>
