<svg width="247" height="202" viewBox="0 0 247 202" fill="none" xmlns="http://www.w3.org/2000/svg">
<g filter="url(#filter0_b_6_845)">
<rect y="54" width="247" height="148" rx="54.0153" fill="url(#paint0_linear_6_845)" fill-opacity="0.2"/>
</g>
<path d="M19.808 171.16C18.336 171.16 16.9387 170.861 15.616 170.264C14.3147 169.667 13.1627 168.845 12.16 167.8C11.1787 166.733 10.4107 165.496 9.856 164.088C9.30133 162.68 9.024 161.155 9.024 159.512C9.024 157.955 9.30133 156.493 9.856 155.128C10.4107 153.741 11.1893 152.525 12.192 151.48C13.1947 150.435 14.368 149.613 15.712 149.016C17.056 148.419 18.5173 148.12 20.096 148.12C22.2293 148.12 24.0533 148.579 25.568 149.496C27.104 150.392 28.256 151.587 29.024 153.08L25.728 155.512C25.152 154.381 24.3413 153.517 23.296 152.92C22.272 152.323 21.152 152.024 19.936 152.024C18.976 152.024 18.1013 152.227 17.312 152.632C16.5227 153.037 15.84 153.592 15.264 154.296C14.688 155 14.24 155.811 13.92 156.728C13.6213 157.645 13.472 158.616 13.472 159.64C13.472 160.728 13.632 161.731 13.952 162.648C14.2933 163.565 14.7627 164.365 15.36 165.048C15.9787 165.731 16.6933 166.275 17.504 166.68C18.3147 167.064 19.2107 167.256 20.192 167.256C21.344 167.256 22.4427 166.957 23.488 166.36C24.5547 165.763 25.5467 164.888 26.464 163.736V168.088C24.5653 170.136 22.3467 171.16 19.808 171.16ZM26.144 162.552H21.568V159.32H29.792V171H26.144V162.552ZM43.1235 157.944C41.8222 157.944 40.6595 158.2 39.6355 158.712C38.6115 159.203 37.8755 159.917 37.4275 160.856V171H33.1395V154.232H37.0755V157.816C37.6728 156.664 38.4302 155.757 39.3475 155.096C40.2648 154.435 41.2355 154.072 42.2595 154.008C42.4942 154.008 42.6755 154.008 42.8035 154.008C42.9315 154.008 43.0382 154.019 43.1235 154.04V157.944ZM44.2688 166.04C44.2688 164.952 44.5674 164.003 45.1648 163.192C45.7834 162.36 46.6368 161.72 47.7248 161.272C48.8128 160.824 50.0608 160.6 51.4688 160.6C52.1728 160.6 52.8874 160.653 53.6128 160.76C54.3381 160.867 54.9674 161.037 55.5008 161.272V160.376C55.5008 159.309 55.1808 158.488 54.5408 157.912C53.9221 157.336 52.9941 157.048 51.7568 157.048C50.8394 157.048 49.9648 157.208 49.1328 157.528C48.3008 157.848 47.4261 158.317 46.5088 158.936L45.1328 156.12C46.2421 155.395 47.3728 154.851 48.5248 154.488C49.6981 154.125 50.9248 153.944 52.2048 153.944C54.5941 153.944 56.4501 154.541 57.7728 155.736C59.1168 156.931 59.7888 158.637 59.7888 160.856V166.2C59.7888 166.648 59.8634 166.968 60.0128 167.16C60.1834 167.352 60.4501 167.469 60.8128 167.512V171C60.4288 171.064 60.0768 171.117 59.7568 171.16C59.4581 171.203 59.2021 171.224 58.9888 171.224C58.1354 171.224 57.4848 171.032 57.0368 170.648C56.6101 170.264 56.3434 169.795 56.2368 169.24L56.1408 168.376C55.4154 169.315 54.5088 170.04 53.4208 170.552C52.3328 171.064 51.2234 171.32 50.0928 171.32C48.9834 171.32 47.9808 171.096 47.0848 170.648C46.2101 170.179 45.5168 169.549 45.0048 168.76C44.5141 167.949 44.2688 167.043 44.2688 166.04ZM54.7008 166.904C54.9354 166.648 55.1274 166.392 55.2768 166.136C55.4261 165.88 55.5008 165.645 55.5008 165.432V163.736C54.9888 163.523 54.4341 163.363 53.8368 163.256C53.2394 163.128 52.6741 163.064 52.1408 163.064C51.0314 163.064 50.1141 163.309 49.3888 163.8C48.6848 164.269 48.3328 164.899 48.3328 165.688C48.3328 166.115 48.4501 166.52 48.6848 166.904C48.9194 167.288 49.2608 167.597 49.7088 167.832C50.1568 168.067 50.6901 168.184 51.3088 168.184C51.9488 168.184 52.5781 168.067 53.1968 167.832C53.8154 167.576 54.3168 167.267 54.7008 166.904ZM73.8438 171.32C72.5424 171.32 71.3904 171.032 70.3878 170.456C69.4064 169.859 68.6384 169.059 68.0838 168.056V177.816H63.7958V154.232H67.5398V157.112C68.1798 156.131 68.9904 155.363 69.9718 154.808C70.9531 154.232 72.0731 153.944 73.3318 153.944C74.4624 153.944 75.4971 154.168 76.4358 154.616C77.3958 155.064 78.2278 155.693 78.9318 156.504C79.6358 157.293 80.1798 158.211 80.5638 159.256C80.9691 160.28 81.1718 161.389 81.1718 162.584C81.1718 164.205 80.8518 165.677 80.2118 167C79.5931 168.323 78.7291 169.379 77.6198 170.168C76.5318 170.936 75.2731 171.32 73.8438 171.32ZM72.4038 167.672C73.0651 167.672 73.6624 167.533 74.1958 167.256C74.7291 166.979 75.1878 166.605 75.5718 166.136C75.9771 165.645 76.2758 165.101 76.4678 164.504C76.6811 163.885 76.7878 163.245 76.7878 162.584C76.7878 161.88 76.6704 161.229 76.4358 160.632C76.2224 160.035 75.9024 159.512 75.4758 159.064C75.0491 158.595 74.5478 158.232 73.9718 157.976C73.4171 157.72 72.8091 157.592 72.1478 157.592C71.7424 157.592 71.3264 157.667 70.8998 157.816C70.4944 157.944 70.0998 158.136 69.7158 158.392C69.3318 158.648 68.9904 158.947 68.6918 159.288C68.4144 159.629 68.2118 160.003 68.0838 160.408V164.344C68.3398 164.963 68.6811 165.528 69.1078 166.04C69.5558 166.552 70.0678 166.957 70.6438 167.256C71.2198 167.533 71.8064 167.672 72.4038 167.672ZM99.661 171H95.373V161.592C95.373 160.291 95.117 159.32 94.605 158.68C94.1143 158.04 93.4317 157.72 92.557 157.72C92.045 157.72 91.501 157.869 90.925 158.168C90.349 158.467 89.8263 158.883 89.357 159.416C88.909 159.928 88.5783 160.525 88.365 161.208V171H84.077V147.64H88.365V157.336C88.9837 156.269 89.8263 155.437 90.893 154.84C91.9597 154.243 93.1223 153.944 94.381 153.944C95.469 153.944 96.3543 154.136 97.037 154.52C97.7197 154.883 98.253 155.384 98.637 156.024C99.021 156.643 99.2877 157.347 99.437 158.136C99.5863 158.904 99.661 159.704 99.661 160.536V171ZM103.39 171V154.232H107.678V171H103.39ZM103.39 151.896V147.64H107.678V151.896H103.39ZM119.354 171.32C117.988 171.32 116.762 171.096 115.674 170.648C114.586 170.179 113.658 169.539 112.89 168.728C112.122 167.896 111.524 166.957 111.098 165.912C110.692 164.867 110.49 163.768 110.49 162.616C110.49 161.037 110.842 159.597 111.546 158.296C112.271 156.973 113.295 155.917 114.618 155.128C115.94 154.339 117.508 153.944 119.322 153.944C121.135 153.944 122.692 154.339 123.994 155.128C125.295 155.917 126.266 156.952 126.906 158.232L122.714 159.512C122.351 158.893 121.871 158.424 121.274 158.104C120.676 157.763 120.015 157.592 119.29 157.592C118.479 157.592 117.732 157.805 117.05 158.232C116.388 158.637 115.866 159.224 115.482 159.992C115.098 160.739 114.906 161.613 114.906 162.616C114.906 163.597 115.098 164.472 115.482 165.24C115.887 165.987 116.42 166.584 117.082 167.032C117.743 167.459 118.479 167.672 119.29 167.672C119.802 167.672 120.282 167.587 120.73 167.416C121.199 167.245 121.615 167.011 121.978 166.712C122.34 166.413 122.607 166.072 122.778 165.688L126.97 166.968C126.586 167.8 126.02 168.547 125.274 169.208C124.548 169.869 123.684 170.392 122.682 170.776C121.7 171.139 120.591 171.32 119.354 171.32ZM137.712 171V148.28H145.968C148.442 148.28 150.512 148.792 152.176 149.816C153.84 150.819 155.088 152.184 155.92 153.912C156.752 155.619 157.168 157.517 157.168 159.608C157.168 161.912 156.709 163.917 155.792 165.624C154.874 167.331 153.573 168.653 151.888 169.592C150.224 170.531 148.25 171 145.968 171H137.712ZM152.72 159.608C152.72 158.136 152.453 156.845 151.92 155.736C151.386 154.605 150.618 153.731 149.616 153.112C148.613 152.472 147.397 152.152 145.968 152.152H142.128V167.128H145.968C147.418 167.128 148.645 166.808 149.648 166.168C150.65 165.507 151.408 164.611 151.92 163.48C152.453 162.328 152.72 161.037 152.72 159.608ZM167.978 171.32C166.634 171.32 165.418 171.096 164.33 170.648C163.242 170.179 162.314 169.549 161.546 168.76C160.778 167.949 160.181 167.032 159.754 166.008C159.349 164.963 159.146 163.864 159.146 162.712C159.146 161.112 159.498 159.651 160.202 158.328C160.927 157.005 161.951 155.949 163.274 155.16C164.618 154.349 166.197 153.944 168.01 153.944C169.845 153.944 171.413 154.349 172.714 155.16C174.015 155.949 175.007 157.005 175.69 158.328C176.394 159.629 176.746 161.037 176.746 162.552C176.746 162.808 176.735 163.075 176.714 163.352C176.693 163.608 176.671 163.821 176.65 163.992H163.69C163.775 164.845 164.021 165.592 164.426 166.232C164.853 166.872 165.386 167.363 166.026 167.704C166.687 168.024 167.391 168.184 168.138 168.184C168.991 168.184 169.791 167.981 170.538 167.576C171.306 167.149 171.829 166.595 172.106 165.912L175.786 166.936C175.381 167.789 174.794 168.547 174.026 169.208C173.279 169.869 172.394 170.392 171.37 170.776C170.346 171.139 169.215 171.32 167.978 171.32ZM163.594 161.272H172.362C172.277 160.419 172.031 159.683 171.626 159.064C171.242 158.424 170.73 157.933 170.09 157.592C169.45 157.229 168.735 157.048 167.946 157.048C167.178 157.048 166.474 157.229 165.834 157.592C165.215 157.933 164.703 158.424 164.298 159.064C163.914 159.683 163.679 160.419 163.594 161.272ZM185.534 171.32C184.105 171.32 182.74 171.085 181.438 170.616C180.137 170.147 179.017 169.453 178.078 168.536L179.614 165.752C180.617 166.563 181.598 167.16 182.558 167.544C183.54 167.928 184.478 168.12 185.374 168.12C186.206 168.12 186.868 167.971 187.358 167.672C187.87 167.373 188.126 166.925 188.126 166.328C188.126 165.923 187.988 165.613 187.71 165.4C187.433 165.165 187.028 164.963 186.494 164.792C185.982 164.621 185.353 164.429 184.606 164.216C183.369 163.811 182.334 163.416 181.502 163.032C180.67 162.648 180.041 162.168 179.614 161.592C179.209 160.995 179.006 160.237 179.006 159.32C179.006 158.211 179.284 157.261 179.838 156.472C180.414 155.661 181.204 155.032 182.206 154.584C183.23 154.136 184.425 153.912 185.79 153.912C186.985 153.912 188.116 154.104 189.182 154.488C190.249 154.851 191.22 155.448 192.094 156.28L190.366 159C189.513 158.339 188.702 157.859 187.934 157.56C187.166 157.24 186.388 157.08 185.598 157.08C185.15 157.08 184.724 157.133 184.318 157.24C183.934 157.347 183.614 157.528 183.358 157.784C183.124 158.019 183.006 158.36 183.006 158.808C183.006 159.213 183.113 159.533 183.326 159.768C183.561 159.981 183.902 160.173 184.35 160.344C184.82 160.515 185.385 160.707 186.046 160.92C187.39 161.304 188.521 161.699 189.438 162.104C190.377 162.509 191.081 163.011 191.55 163.608C192.02 164.184 192.254 164.984 192.254 166.008C192.254 167.672 191.646 168.973 190.43 169.912C189.214 170.851 187.582 171.32 185.534 171.32ZM195.171 171V154.232H199.459V171H195.171ZM195.171 151.896V147.64H199.459V151.896H195.171ZM209.887 171.096C208.778 171.096 207.754 170.883 206.815 170.456C205.898 170.008 205.098 169.389 204.415 168.6C203.754 167.811 203.242 166.904 202.879 165.88C202.516 164.856 202.335 163.768 202.335 162.616C202.335 161.4 202.527 160.269 202.911 159.224C203.295 158.179 203.828 157.261 204.511 156.472C205.215 155.661 206.036 155.043 206.975 154.616C207.935 154.168 208.991 153.944 210.143 153.944C211.444 153.944 212.586 154.243 213.567 154.84C214.548 155.416 215.359 156.195 215.999 157.176V154.232H219.743V170.2C219.743 171.864 219.338 173.283 218.527 174.456C217.738 175.651 216.639 176.557 215.231 177.176C213.823 177.816 212.223 178.136 210.431 178.136C208.618 178.136 207.082 177.827 205.823 177.208C204.564 176.611 203.487 175.757 202.591 174.648L204.927 172.376C205.567 173.165 206.367 173.784 207.327 174.232C208.308 174.68 209.343 174.904 210.431 174.904C211.348 174.904 212.18 174.733 212.927 174.392C213.695 174.072 214.303 173.56 214.751 172.856C215.22 172.173 215.455 171.288 215.455 170.2V168.088C214.9 169.048 214.111 169.795 213.087 170.328C212.084 170.84 211.018 171.096 209.887 171.096ZM211.327 167.672C211.796 167.672 212.244 167.597 212.671 167.448C213.098 167.299 213.492 167.096 213.855 166.84C214.218 166.584 214.538 166.285 214.815 165.944C215.092 165.581 215.306 165.219 215.455 164.856V160.856C215.199 160.195 214.836 159.619 214.367 159.128C213.919 158.637 213.407 158.264 212.831 158.008C212.276 157.731 211.69 157.592 211.071 157.592C210.41 157.592 209.812 157.731 209.279 158.008C208.746 158.285 208.287 158.68 207.903 159.192C207.519 159.683 207.22 160.237 207.007 160.856C206.815 161.453 206.719 162.083 206.719 162.744C206.719 163.427 206.836 164.067 207.071 164.664C207.306 165.261 207.626 165.784 208.031 166.232C208.458 166.68 208.948 167.032 209.503 167.288C210.079 167.544 210.687 167.672 211.327 167.672ZM239.192 171H234.904V161.592C234.904 160.248 234.67 159.267 234.2 158.648C233.731 158.029 233.08 157.72 232.248 157.72C231.672 157.72 231.086 157.869 230.488 158.168C229.912 158.467 229.39 158.883 228.92 159.416C228.451 159.928 228.11 160.525 227.896 161.208V171H223.608V154.232H227.48V157.336C227.907 156.611 228.451 156.003 229.112 155.512C229.774 155 230.531 154.616 231.384 154.36C232.259 154.083 233.176 153.944 234.136 153.944C235.182 153.944 236.035 154.136 236.696 154.52C237.379 154.883 237.891 155.384 238.232 156.024C238.595 156.643 238.84 157.347 238.968 158.136C239.118 158.925 239.192 159.725 239.192 160.536V171Z" fill="white"/>
<path d="M75.0592 40.1992C61.0752 34.6056 54.0833 31.8088 54.0833 28.3334C54.0833 24.858 61.0752 22.0612 75.0592 16.4676L94.8355 8.55711C108.819 2.96356 115.811 0.166748 124.5 0.166748C133.189 0.166748 140.18 2.96356 154.164 8.55711L173.941 16.4676C187.925 22.0612 194.917 24.858 194.917 28.3334C194.917 31.8088 187.925 34.6056 173.941 40.1992L154.164 48.1099C140.18 53.7031 133.189 56.5001 124.5 56.5001C115.811 56.5001 108.819 53.7031 94.8355 48.1099L75.0592 40.1992Z" fill="url(#paint1_linear_6_845)"/>
<path fill-rule="evenodd" clip-rule="evenodd" d="M54.0833 28.3334C54.0833 31.8088 61.0752 34.6056 75.0592 40.1992L94.8355 48.1099C108.819 53.7031 115.811 56.5001 124.5 56.5001C133.189 56.5001 140.18 53.7031 154.164 48.1099L173.941 40.1992C187.925 34.6056 194.917 31.8088 194.917 28.3334C194.917 24.858 187.925 22.0612 173.941 16.4676L154.164 8.55711C140.18 2.96356 133.189 0.166748 124.5 0.166748C115.811 0.166748 108.819 2.96356 94.8355 8.55711L75.0592 16.4676C61.0752 22.0612 54.0833 24.858 54.0833 28.3334Z" fill="url(#paint2_linear_6_845)"/>
<path d="M173.941 68.3659L154.164 76.2765C140.18 81.8697 133.189 84.6666 124.5 84.6666C115.811 84.6666 108.819 81.8697 94.8355 76.2765L75.0592 68.3659C61.0752 62.772 54.0833 59.975 54.0833 56.5C54.0833 53.3671 59.7645 50.7857 71.1271 46.2107L93.245 55.0578C106.262 60.2673 114.444 63.5416 124.5 63.5416C134.555 63.5416 142.737 60.2673 155.755 55.0578L177.873 46.2107C189.235 50.7857 194.917 53.3671 194.917 56.5C194.917 59.975 187.925 62.772 173.941 68.3659Z" fill="url(#paint3_linear_6_845)"/>
<path d="M173.941 96.5312L154.164 104.442C140.18 110.035 133.189 112.832 124.5 112.832C115.811 112.832 108.819 110.035 94.8355 104.442L75.0592 96.5312C61.0752 90.9373 54.0833 88.141 54.0833 84.6653C54.0833 81.5324 59.7645 78.9509 71.1271 74.376L93.245 83.2231C106.262 88.4326 114.444 91.7069 124.5 91.7069C134.555 91.7069 142.737 88.4326 155.755 83.2231L177.873 74.376C189.235 78.9509 194.917 81.5324 194.917 84.6653C194.917 88.141 187.925 90.9373 173.941 96.5312Z" fill="url(#paint4_linear_6_845)"/>
<defs>
<filter id="filter0_b_6_845" x="-81.023" y="-27.023" width="409.046" height="310.046" filterUnits="userSpaceOnUse" color-interpolation-filters="sRGB">
<feFlood flood-opacity="0" result="BackgroundImageFix"/>
<feGaussianBlur in="BackgroundImageFix" stdDeviation="40.5115"/>
<feComposite in2="SourceAlpha" operator="in" result="effect1_backgroundBlur_6_845"/>
<feBlend mode="normal" in="SourceGraphic" in2="effect1_backgroundBlur_6_845" result="shape"/>
</filter>
<linearGradient id="paint0_linear_6_845" x1="462.569" y1="-128.098" x2="-23.8948" y2="216.129" gradientUnits="userSpaceOnUse">
<stop stop-color="white"/>
<stop offset="1" stop-color="white" stop-opacity="0"/>
</linearGradient>
<linearGradient id="paint1_linear_6_845" x1="124.5" y1="0.166748" x2="124.5" y2="56.5001" gradientUnits="userSpaceOnUse">
<stop stop-color="#BAAFAF"/>
<stop offset="1" stop-color="#6A6363"/>
</linearGradient>
<linearGradient id="paint2_linear_6_845" x1="124.5" y1="0.166748" x2="124.5" y2="56.5001" gradientUnits="userSpaceOnUse">
<stop stop-color="#BAAFAF"/>
<stop offset="1" stop-color="#6A6363"/>
</linearGradient>
<linearGradient id="paint3_linear_6_845" x1="124.5" y1="46.2107" x2="124.5" y2="84.6666" gradientUnits="userSpaceOnUse">
<stop stop-color="#BAAFAF"/>
<stop offset="1" stop-color="#6A6363"/>
</linearGradient>
<linearGradient id="paint4_linear_6_845" x1="124.5" y1="74.376" x2="124.5" y2="112.832" gradientUnits="userSpaceOnUse">
<stop stop-color="#BAAFAF"/>
<stop offset="1" stop-color="#6A6363"/>
</linearGradient>
</defs>
</svg>
