<svg width="155" height="29" viewBox="0 0 155 29" fill="none" xmlns="http://www.w3.org/2000/svg">
<path d="M0.697094 28C2.20909 26.488 2.28109 24.148 2.28109 22.168V8.884C2.28109 6.868 2.20909 4.528 0.697094 3.016C3.50509 2.908 6.13309 1.72 7.78909 0.532V12.052C8.94109 9.748 11.4251 8.632 13.9091 8.632C17.3651 8.632 20.8211 10.792 20.7491 14.86V22.168C20.7491 24.148 20.8211 26.488 22.3331 28H13.6931C15.2051 26.488 15.2771 24.148 15.2771 22.168V15.112C14.9891 11.476 13.4771 10 11.8571 10C9.87709 10 7.78909 12.232 7.78909 15.292V22.168C7.78909 24.148 7.82509 26.488 9.37309 28H0.697094ZM23.5503 22.42C23.6223 18.64 27.2223 16.372 30.7863 16.372C32.9823 16.372 35.1423 17.236 36.4743 19.144V15.472C36.5103 11.152 34.0263 9.784 32.4063 9.82C30.1743 9.892 29.8863 12.772 32.4423 13.024C32.3343 14.86 30.5343 15.904 28.8063 15.904C27.2223 15.904 25.6743 15.004 25.6383 13.06C25.8903 9.568 29.7063 8.56 33.0183 8.668C38.3823 8.704 41.9823 11.836 41.9823 17.236V22.168C41.9823 24.148 42.0183 26.488 43.5663 28H41.6583C40.4343 28 37.4103 27.856 36.4743 25.804V25.696C35.1783 27.568 33.0183 28.396 30.8943 28.396C27.2943 28.396 23.6223 26.092 23.5503 22.42ZM36.4743 21.808C36.4743 19.576 34.6383 18.316 32.7663 18.316C30.8943 18.316 29.0223 19.576 29.0583 22.42C29.0223 25.264 30.8943 26.56 32.7663 26.56C34.6383 26.56 36.4743 25.3 36.4743 23.032V21.808ZM44.7513 28C46.2633 26.488 46.3353 24.148 46.3353 22.168V17.38C46.3353 15.4 46.2633 13.06 44.7513 11.548C47.5593 11.44 50.1873 10.252 51.8433 9.064V12.052C52.9953 9.748 55.4793 8.632 57.9633 8.632C61.4193 8.632 64.8753 10.792 64.8033 14.86V22.168C64.8033 24.148 64.8753 26.488 66.3873 28H57.7473C59.2593 26.488 59.3313 24.148 59.3313 22.168V15.112C59.0433 11.476 57.5313 10 55.9113 10C53.9313 10 51.8433 12.232 51.8433 15.292V22.168C51.8433 24.148 51.8793 26.488 53.4273 28H44.7513ZM76.3851 28H67.7091C69.2211 26.488 69.2931 24.148 69.2931 22.168V17.38C69.2931 15.4 69.2211 13.06 67.7091 11.548C70.5171 11.44 73.1451 10.252 74.8011 9.064V22.168C74.8011 24.148 74.8371 26.488 76.3851 28ZM67.9251 6.652C67.3491 5.032 68.5371 3.016 70.6251 2.224C71.2371 2.008 71.8491 1.9 72.4251 1.9C73.8291 1.9 75.0531 2.548 75.4851 3.736C76.0611 5.356 74.8731 7.336 72.7851 8.128C72.1731 8.344 71.5611 8.452 70.9851 8.452C69.5811 8.452 68.3211 7.804 67.9251 6.652ZM86.4038 28H77.7278C79.2398 26.488 79.3118 24.148 79.3118 22.168V10.288H77.7278V9.064H79.3118V8.74C79.3118 2.692 83.1278 0.567999 87.0518 0.532C90.4718 0.423999 93.8558 1.468 93.7478 5.284C93.6758 7.372 91.8038 8.524 89.9678 8.524C88.4198 8.524 86.9078 7.696 86.6198 5.824C89.5358 5.716 89.2478 1.828 86.9798 1.864C85.4318 1.9 84.7838 3.052 84.8198 7.336V9.064H88.5998V10.288H84.8198V22.168C84.8198 24.148 84.8558 26.488 86.4038 28ZM89.3997 28C90.9117 26.488 90.9837 24.148 90.9837 22.168V17.38C90.9837 15.4 90.9117 13.06 89.3997 11.548C92.2077 11.44 94.8357 10.252 96.4917 9.064V12.052C97.6437 9.748 100.128 8.632 102.612 8.632C106.068 8.632 109.524 10.792 109.452 14.86V22.168C109.452 24.148 109.524 26.488 111.036 28H102.396C103.908 26.488 103.98 24.148 103.98 22.168V15.112C103.692 11.476 102.18 10 100.56 10C98.5797 10 96.4917 12.232 96.4917 15.292V22.168C96.4917 24.148 96.5277 26.488 98.0757 28H89.3997ZM113.906 17.38C113.906 15.4 113.834 13.06 112.322 11.548C115.13 11.44 117.758 10.252 119.414 9.064V12.052C120.566 9.748 122.942 8.596 125.318 8.596C128.594 8.596 131.834 10.828 131.726 15.4H126.218V15.112C126.11 11.548 124.706 10.108 123.194 10.108C121.394 10.108 119.414 12.232 119.414 15.292V22.168C119.414 24.148 119.45 26.488 120.998 28H112.322C113.834 26.488 113.906 24.148 113.906 22.168V17.38ZM132.674 28C134.186 26.488 134.258 24.148 134.258 22.168V8.884C134.258 6.868 134.186 4.528 132.674 3.016C135.482 2.908 138.11 1.72 139.766 0.532V12.052C140.918 9.748 143.402 8.632 145.886 8.632C149.342 8.632 152.798 10.792 152.726 14.86V22.168C152.726 24.148 152.798 26.488 154.31 28H145.67C147.182 26.488 147.254 24.148 147.254 22.168V15.112C146.966 11.476 145.454 10 143.834 10C141.854 10 139.766 12.232 139.766 15.292V22.168C139.766 24.148 139.802 26.488 141.35 28H132.674Z" fill="white"/>
</svg>
