<svg width="32" height="31" viewBox="0 0 32 31" fill="none" xmlns="http://www.w3.org/2000/svg">
<path opacity="0.5" fill-rule="evenodd" clip-rule="evenodd" d="M0 15.5C0 6.93959 7.16344 0 16 0C24.8366 0 32 6.93959 32 15.5C32 24.0604 24.8366 31 16 31C7.16344 31 0 24.0604 0 15.5Z" fill="#B0AB1F"/>
<path fill-rule="evenodd" clip-rule="evenodd" d="M16.0008 7.2334C13.6833 7.2334 13.3924 7.24322 12.4822 7.28334C11.5737 7.32364 10.9536 7.46297 10.4111 7.6674C9.84981 7.87855 9.37372 8.161 8.8994 8.62066C8.42473 9.08016 8.13317 9.54137 7.9145 10.0849C7.70294 10.6107 7.55894 11.2116 7.51805 12.0913C7.47734 12.9731 7.46667 13.255 7.46667 15.5002C7.46667 17.7453 7.47699 18.0262 7.51823 18.9079C7.56001 19.788 7.70383 20.3887 7.91468 20.9144C8.13282 21.4581 8.42437 21.9193 8.89887 22.3788C9.37301 22.8386 9.8491 23.1218 10.41 23.3329C10.9529 23.5373 11.5732 23.6767 12.4815 23.717C13.3917 23.7571 13.6824 23.7669 15.9997 23.7669C18.3175 23.7669 18.6074 23.7571 19.5176 23.717C20.4261 23.6767 21.0469 23.5373 21.5898 23.3329C22.1509 23.1218 22.6263 22.8386 23.1004 22.3788C23.5751 21.9193 23.8667 21.4581 24.0853 20.9145C24.2951 20.3887 24.4391 19.7878 24.4818 18.9081C24.5227 18.0263 24.5333 17.7453 24.5333 15.5002C24.5333 13.255 24.5227 12.9733 24.4818 12.0915C24.4391 11.2114 24.2951 10.6107 24.0853 10.0851C23.8667 9.54137 23.5751 9.08016 23.1004 8.62066C22.6258 8.16082 22.1511 7.87838 21.5893 7.6674C21.0453 7.46297 20.4249 7.32364 19.5164 7.28334C18.6062 7.24322 18.3164 7.2334 15.9981 7.2334H16.0008ZM15.2353 8.72311C15.4625 8.72277 15.716 8.72311 16.0008 8.72311C18.2792 8.72311 18.5492 8.73104 19.449 8.77065C20.281 8.8075 20.7326 8.94218 21.0334 9.05533C21.4316 9.20517 21.7155 9.38428 22.014 9.67362C22.3127 9.96295 22.4976 10.2385 22.6526 10.6243C22.7694 10.9154 22.9086 11.3528 22.9464 12.1588C22.9873 13.0303 22.9962 13.292 22.9962 15.4982C22.9962 17.7044 22.9873 17.9662 22.9464 18.8377C22.9084 19.6437 22.7694 20.0811 22.6526 20.3722C22.4979 20.758 22.3127 21.0327 22.014 21.3218C21.7153 21.6112 21.4318 21.7903 21.0334 21.9401C20.7329 22.0538 20.281 22.1881 19.449 22.225C18.5494 22.2646 18.2792 22.2732 16.0008 22.2732C13.7222 22.2732 13.4521 22.2646 12.5526 22.225C11.7205 22.1878 11.269 22.0531 10.968 21.9399C10.5698 21.7901 10.2853 21.611 9.98666 21.3216C9.68799 21.0323 9.5031 20.7574 9.34808 20.3715C9.23128 20.0804 9.09208 19.643 9.05421 18.837C9.01332 17.9655 9.00514 17.7037 9.00514 15.4962C9.00514 13.2886 9.01332 13.0282 9.05421 12.1567C9.09226 11.3507 9.23128 10.9133 9.34808 10.6219C9.50275 10.2361 9.68799 9.96054 9.98666 9.67121C10.2853 9.38187 10.5698 9.20276 10.968 9.05258C11.2688 8.93891 11.7205 8.80457 12.5526 8.76755C13.3398 8.7331 13.6448 8.72277 15.2353 8.72105V8.72311ZM20.5558 10.0957C19.9905 10.0957 19.5318 10.5396 19.5318 11.0874C19.5318 11.6351 19.9905 12.0794 20.5558 12.0794C21.1212 12.0794 21.5799 11.6351 21.5799 11.0874C21.5799 10.5397 21.1212 10.0957 20.5558 10.0957ZM16.0008 11.2548C13.5807 11.2548 11.6186 13.1556 11.6186 15.5001C11.6186 17.8446 13.5807 19.7446 16.0008 19.7446C18.4209 19.7446 20.3824 17.8446 20.3824 15.5001C20.3824 13.1556 18.4209 11.2548 16.0008 11.2548ZM16.0008 12.7445C17.5717 12.7445 18.8453 13.9782 18.8453 15.5001C18.8453 17.0219 17.5717 18.2557 16.0008 18.2557C14.4298 18.2557 13.1563 17.0219 13.1563 15.5001C13.1563 13.9782 14.4298 12.7445 16.0008 12.7445Z" fill="white"/>
</svg>
