<svg width="247" height="200" viewBox="0 0 247 200" fill="none" xmlns="http://www.w3.org/2000/svg">
<g filter="url(#filter0_b_6_843)">
<rect y="52" width="247" height="148" rx="54.0153" fill="url(#paint0_linear_6_843)" fill-opacity="0.2"/>
</g>
<path d="M87.0001 37.1666C88.6356 37.1666 90.2041 37.8163 91.3606 38.9728C92.517 40.1293 93.1667 41.6978 93.1667 43.3333V92.6666C93.1667 94.3021 92.517 95.8707 91.3606 97.0271C90.2041 98.1836 88.6356 98.8333 87.0001 98.8333C85.3646 98.8333 83.7961 98.1836 82.6396 97.0271C81.4831 95.8707 80.8334 94.3021 80.8334 92.6666V43.3333C80.8334 41.6978 81.4831 40.1293 82.6396 38.9728C83.7961 37.8163 85.3646 37.1666 87.0001 37.1666ZM119.64 47.1998L142.001 24.8333H74.6667C73.0312 24.8333 71.4627 25.483 70.3063 26.6395C69.1498 27.796 68.5001 29.3645 68.5001 31V105C68.5001 106.635 69.1498 108.204 70.3063 109.36C71.4627 110.517 73.0312 111.167 74.6667 111.167H173.333C174.969 111.167 176.537 110.517 177.694 109.36C178.85 108.204 179.5 106.635 179.5 105V55.6666C179.5 54.0311 180.15 52.4626 181.306 51.3061C182.463 50.1497 184.031 49.5 185.667 49.5C187.302 49.5 188.871 50.1497 190.027 51.3061C191.184 52.4626 191.833 54.0311 191.833 55.6666V105C191.833 109.906 189.884 114.612 186.415 118.081C182.945 121.551 178.24 123.5 173.333 123.5H74.6667C69.7602 123.5 65.0547 121.551 61.5853 118.081C58.1158 114.612 56.1667 109.906 56.1667 105V31C56.1667 26.0935 58.1158 21.3879 61.5853 17.9185C65.0547 14.4491 69.7602 12.5 74.6667 12.5H154.334L164.86 1.97347C166.039 0.859327 167.599 0.238525 169.22 0.238525C170.842 0.238525 172.402 0.859327 173.58 1.97347L190.027 18.42C191.183 19.5764 191.832 21.1446 191.832 22.7798C191.832 24.415 191.183 25.9832 190.027 27.1396L144.8 72.3598C143.644 73.5164 142.076 74.1663 140.44 74.1666H124C122.365 74.1666 120.796 73.5169 119.64 72.3605C118.483 71.204 117.833 69.6355 117.833 68V51.5596C117.834 49.9243 118.484 48.356 119.64 47.1998ZM130.167 61.8333H137.887L176.947 22.7798L169.22 15.053L130.167 54.1126V61.8333Z" fill="url(#paint1_linear_6_843)"/>
<path d="M42.368 172V149.28H46.784V172H42.368ZM51.0763 148.64H55.3643V166.624C55.3643 167.392 55.4923 167.915 55.7483 168.192C56.0043 168.448 56.3563 168.576 56.8043 168.576C57.1456 168.576 57.4976 168.533 57.8603 168.448C58.2229 168.363 58.5429 168.256 58.8203 168.128L59.3963 171.392C58.8203 171.669 58.1483 171.883 57.3802 172.032C56.6123 172.181 55.9189 172.256 55.3003 172.256C53.9563 172.256 52.9109 171.904 52.1643 171.2C51.4389 170.475 51.0763 169.451 51.0763 168.128V148.64ZM61.2325 148.64H65.5205V166.624C65.5205 167.392 65.6485 167.915 65.9045 168.192C66.1605 168.448 66.5125 168.576 66.9605 168.576C67.3018 168.576 67.6538 168.533 68.0165 168.448C68.3792 168.363 68.6992 168.256 68.9765 168.128L69.5525 171.392C68.9765 171.669 68.3045 171.883 67.5365 172.032C66.7685 172.181 66.0752 172.256 65.4565 172.256C64.1125 172.256 63.0672 171.904 62.3205 171.2C61.5952 170.475 61.2325 169.451 61.2325 168.128V148.64ZM71.2608 165.728V155.232H75.5488V164.8C75.5488 166.08 75.7834 167.051 76.2528 167.712C76.7221 168.352 77.4154 168.672 78.3328 168.672C78.8874 168.672 79.4314 168.565 79.9648 168.352C80.5194 168.117 81.0208 167.776 81.4688 167.328C81.9381 166.88 82.3328 166.315 82.6528 165.632V155.232H86.9408V167.2C86.9408 167.648 87.0154 167.968 87.1648 168.16C87.3354 168.352 87.6021 168.469 87.9648 168.512V172C87.5381 172.064 87.1754 172.107 86.8768 172.128C86.5994 172.171 86.3434 172.192 86.1088 172.192C85.3408 172.192 84.7114 172.021 84.2208 171.68C83.7514 171.317 83.4741 170.827 83.3888 170.208L83.2928 168.864C82.5461 169.995 81.5861 170.859 80.4128 171.456C79.2394 172.032 77.9488 172.32 76.5408 172.32C74.8128 172.32 73.5008 171.765 72.6048 170.656C71.7088 169.525 71.2608 167.883 71.2608 165.728ZM97.378 172.32C95.9487 172.32 94.5833 172.085 93.282 171.616C91.9807 171.147 90.8607 170.453 89.922 169.536L91.458 166.752C92.4607 167.563 93.442 168.16 94.402 168.544C95.3833 168.928 96.322 169.12 97.218 169.12C98.05 169.12 98.7113 168.971 99.202 168.672C99.714 168.373 99.97 167.925 99.97 167.328C99.97 166.923 99.8313 166.613 99.554 166.4C99.2767 166.165 98.8713 165.963 98.338 165.792C97.826 165.621 97.1967 165.429 96.45 165.216C95.2127 164.811 94.178 164.416 93.346 164.032C92.514 163.648 91.8847 163.168 91.458 162.592C91.0527 161.995 90.85 161.237 90.85 160.32C90.85 159.211 91.1273 158.261 91.682 157.472C92.258 156.661 93.0473 156.032 94.05 155.584C95.074 155.136 96.2687 154.912 97.634 154.912C98.8287 154.912 99.9593 155.104 101.026 155.488C102.093 155.851 103.063 156.448 103.938 157.28L102.21 160C101.357 159.339 100.546 158.859 99.778 158.56C99.01 158.24 98.2313 158.08 97.442 158.08C96.994 158.08 96.5673 158.133 96.162 158.24C95.778 158.347 95.458 158.528 95.202 158.784C94.9673 159.019 94.85 159.36 94.85 159.808C94.85 160.213 94.9567 160.533 95.17 160.768C95.4047 160.981 95.746 161.173 96.194 161.344C96.6633 161.515 97.2287 161.707 97.89 161.92C99.234 162.304 100.365 162.699 101.282 163.104C102.221 163.509 102.925 164.011 103.394 164.608C103.863 165.184 104.098 165.984 104.098 167.008C104.098 168.672 103.49 169.973 102.274 170.912C101.058 171.851 99.426 172.32 97.378 172.32ZM116.969 171.136C116.606 171.285 116.169 171.456 115.657 171.648C115.145 171.84 114.59 171.989 113.993 172.096C113.417 172.224 112.83 172.288 112.233 172.288C111.443 172.288 110.718 172.149 110.057 171.872C109.395 171.595 108.862 171.157 108.457 170.56C108.073 169.941 107.881 169.141 107.881 168.16V158.528H105.673V155.232H107.881V149.792H112.169V155.232H115.689V158.528H112.169V166.72C112.19 167.296 112.35 167.712 112.649 167.968C112.947 168.224 113.321 168.352 113.769 168.352C114.217 168.352 114.654 168.277 115.081 168.128C115.507 167.979 115.849 167.851 116.105 167.744L116.969 171.136ZM129.186 158.944C127.885 158.944 126.722 159.2 125.698 159.712C124.674 160.203 123.938 160.917 123.49 161.856V172H119.202V155.232H123.138V158.816C123.735 157.664 124.493 156.757 125.41 156.096C126.327 155.435 127.298 155.072 128.322 155.008C128.557 155.008 128.738 155.008 128.866 155.008C128.994 155.008 129.101 155.019 129.186 155.04V158.944ZM130.331 167.04C130.331 165.952 130.63 165.003 131.227 164.192C131.846 163.36 132.699 162.72 133.787 162.272C134.875 161.824 136.123 161.6 137.531 161.6C138.235 161.6 138.95 161.653 139.675 161.76C140.401 161.867 141.03 162.037 141.563 162.272V161.376C141.563 160.309 141.243 159.488 140.603 158.912C139.985 158.336 139.057 158.048 137.819 158.048C136.902 158.048 136.027 158.208 135.195 158.528C134.363 158.848 133.489 159.317 132.571 159.936L131.195 157.12C132.305 156.395 133.435 155.851 134.587 155.488C135.761 155.125 136.987 154.944 138.267 154.944C140.657 154.944 142.513 155.541 143.835 156.736C145.179 157.931 145.851 159.637 145.851 161.856V167.2C145.851 167.648 145.926 167.968 146.075 168.16C146.246 168.352 146.513 168.469 146.875 168.512V172C146.491 172.064 146.139 172.117 145.819 172.16C145.521 172.203 145.265 172.224 145.051 172.224C144.198 172.224 143.547 172.032 143.099 171.648C142.673 171.264 142.406 170.795 142.299 170.24L142.203 169.376C141.478 170.315 140.571 171.04 139.483 171.552C138.395 172.064 137.286 172.32 136.155 172.32C135.046 172.32 134.043 172.096 133.147 171.648C132.273 171.179 131.579 170.549 131.067 169.76C130.577 168.949 130.331 168.043 130.331 167.04ZM140.763 167.904C140.998 167.648 141.19 167.392 141.339 167.136C141.489 166.88 141.563 166.645 141.563 166.432V164.736C141.051 164.523 140.497 164.363 139.899 164.256C139.302 164.128 138.737 164.064 138.203 164.064C137.094 164.064 136.177 164.309 135.451 164.8C134.747 165.269 134.395 165.899 134.395 166.688C134.395 167.115 134.513 167.52 134.747 167.904C134.982 168.288 135.323 168.597 135.771 168.832C136.219 169.067 136.753 169.184 137.371 169.184C138.011 169.184 138.641 169.067 139.259 168.832C139.878 168.576 140.379 168.267 140.763 167.904ZM159.75 171.136C159.387 171.285 158.95 171.456 158.438 171.648C157.926 171.84 157.371 171.989 156.774 172.096C156.198 172.224 155.611 172.288 155.014 172.288C154.225 172.288 153.499 172.149 152.838 171.872C152.177 171.595 151.643 171.157 151.238 170.56C150.854 169.941 150.662 169.141 150.662 168.16V158.528H148.454V155.232H150.662V149.792H154.95V155.232H158.47V158.528H154.95V166.72C154.971 167.296 155.131 167.712 155.43 167.968C155.729 168.224 156.102 168.352 156.55 168.352C156.998 168.352 157.435 168.277 157.862 168.128C158.289 167.979 158.63 167.851 158.886 167.744L159.75 171.136ZM161.983 172V155.232H166.271V172H161.983ZM161.983 152.896V148.64H166.271V152.896H161.983ZM177.884 172.32C176.518 172.32 175.292 172.096 174.204 171.648C173.116 171.179 172.188 170.539 171.42 169.728C170.673 168.917 170.097 167.989 169.692 166.944C169.286 165.899 169.084 164.8 169.084 163.648C169.084 162.475 169.286 161.365 169.692 160.32C170.097 159.275 170.673 158.347 171.42 157.536C172.188 156.725 173.116 156.096 174.204 155.648C175.292 155.179 176.518 154.944 177.884 154.944C179.249 154.944 180.465 155.179 181.532 155.648C182.62 156.096 183.548 156.725 184.316 157.536C185.084 158.347 185.66 159.275 186.044 160.32C186.449 161.365 186.652 162.475 186.652 163.648C186.652 164.8 186.449 165.899 186.044 166.944C185.66 167.989 185.084 168.917 184.316 169.728C183.569 170.539 182.652 171.179 181.564 171.648C180.476 172.096 179.249 172.32 177.884 172.32ZM173.5 163.648C173.5 164.629 173.692 165.504 174.076 166.272C174.46 167.019 174.982 167.605 175.644 168.032C176.305 168.459 177.052 168.672 177.884 168.672C178.694 168.672 179.43 168.459 180.092 168.032C180.753 167.584 181.276 166.987 181.66 166.24C182.065 165.472 182.268 164.597 182.268 163.616C182.268 162.656 182.065 161.792 181.66 161.024C181.276 160.256 180.753 159.659 180.092 159.232C179.43 158.805 178.694 158.592 177.884 158.592C177.052 158.592 176.305 158.816 175.644 159.264C174.982 159.691 174.46 160.288 174.076 161.056C173.692 161.803 173.5 162.667 173.5 163.648ZM205.13 172H200.842V162.592C200.842 161.248 200.607 160.267 200.138 159.648C199.668 159.029 199.018 158.72 198.186 158.72C197.61 158.72 197.023 158.869 196.426 159.168C195.85 159.467 195.327 159.883 194.858 160.416C194.388 160.928 194.047 161.525 193.834 162.208V172H189.546V155.232H193.418V158.336C193.844 157.611 194.388 157.003 195.05 156.512C195.711 156 196.468 155.616 197.322 155.36C198.196 155.083 199.114 154.944 200.074 154.944C201.119 154.944 201.972 155.136 202.634 155.52C203.316 155.883 203.828 156.384 204.17 157.024C204.532 157.643 204.778 158.347 204.906 159.136C205.055 159.925 205.13 160.725 205.13 161.536V172Z" fill="white"/>
<defs>
<filter id="filter0_b_6_843" x="-81.023" y="-29.023" width="409.046" height="310.046" filterUnits="userSpaceOnUse" color-interpolation-filters="sRGB">
<feFlood flood-opacity="0" result="BackgroundImageFix"/>
<feGaussianBlur in="BackgroundImageFix" stdDeviation="40.5115"/>
<feComposite in2="SourceAlpha" operator="in" result="effect1_backgroundBlur_6_843"/>
<feBlend mode="normal" in="SourceGraphic" in2="effect1_backgroundBlur_6_843" result="shape"/>
</filter>
<linearGradient id="paint0_linear_6_843" x1="462.569" y1="-130.098" x2="-23.8948" y2="214.129" gradientUnits="userSpaceOnUse">
<stop stop-color="white"/>
<stop offset="1" stop-color="white" stop-opacity="0"/>
</linearGradient>
<linearGradient id="paint1_linear_6_843" x1="124" y1="0.238525" x2="124" y2="123.5" gradientUnits="userSpaceOnUse">
<stop stop-color="#9E6208"/>
<stop offset="1" stop-color="#917351"/>
</linearGradient>
</defs>
</svg>
