<svg width="325" height="325" viewBox="0 0 325 325" fill="none" xmlns="http://www.w3.org/2000/svg">
<circle cx="162.5" cy="162.5" r="162.5" fill="url(#paint0_linear_59_4)"/>
<path d="M108.054 226C115.666 218.388 116.029 206.607 116.029 196.639V129.761C116.029 119.611 115.666 107.831 108.054 100.218C122.191 99.6748 135.421 93.6938 143.759 87.7128V145.71C149.558 134.111 162.064 128.492 174.57 128.492C191.969 128.492 209.368 139.367 209.005 159.847V196.639C209.005 206.607 209.368 218.388 216.98 226H173.482C181.094 218.388 181.457 206.607 181.457 196.639V161.116C180.007 142.81 172.395 135.379 164.239 135.379C154.271 135.379 143.759 146.616 143.759 162.022V196.639C143.759 206.607 143.94 218.388 151.733 226H108.054Z" fill="white"/>
<defs>
<linearGradient id="paint0_linear_59_4" x1="162.5" y1="0" x2="162.5" y2="325" gradientUnits="userSpaceOnUse">
<stop stop-color="#634848"/>
<stop offset="1" stop-color="#411818"/>
</linearGradient>
</defs>
</svg>
