<svg width="247" height="212" viewBox="0 0 247 212" fill="none" xmlns="http://www.w3.org/2000/svg">
<g filter="url(#filter0_b_6_844)">
<rect y="64" width="247" height="148" rx="54.0153" fill="url(#paint0_linear_6_844)" fill-opacity="0.2"/>
</g>
<path d="M99.896 186V171.088L94.072 182.192H91.608L85.784 171.088V186H81.368V163.28H86.104L92.824 176.208L99.608 163.28H104.312V186H99.896ZM108.48 179.728V169.232H112.768V178.8C112.768 180.08 113.002 181.051 113.472 181.712C113.941 182.352 114.634 182.672 115.552 182.672C116.106 182.672 116.65 182.565 117.184 182.352C117.738 182.117 118.24 181.776 118.688 181.328C119.157 180.88 119.552 180.315 119.872 179.632V169.232H124.16V181.2C124.16 181.648 124.234 181.968 124.384 182.16C124.554 182.352 124.821 182.469 125.184 182.512V186C124.757 186.064 124.394 186.107 124.096 186.128C123.818 186.171 123.562 186.192 123.328 186.192C122.56 186.192 121.93 186.021 121.44 185.68C120.97 185.317 120.693 184.827 120.608 184.208L120.512 182.864C119.765 183.995 118.805 184.859 117.632 185.456C116.458 186.032 115.168 186.32 113.76 186.32C112.032 186.32 110.72 185.765 109.824 184.656C108.928 183.525 108.48 181.883 108.48 179.728ZM134.597 186.32C133.167 186.32 131.802 186.085 130.501 185.616C129.199 185.147 128.079 184.453 127.141 183.536L128.677 180.752C129.679 181.563 130.661 182.16 131.621 182.544C132.602 182.928 133.541 183.12 134.437 183.12C135.269 183.12 135.93 182.971 136.421 182.672C136.933 182.373 137.189 181.925 137.189 181.328C137.189 180.923 137.05 180.613 136.773 180.4C136.495 180.165 136.09 179.963 135.557 179.792C135.045 179.621 134.415 179.429 133.669 179.216C132.431 178.811 131.397 178.416 130.565 178.032C129.733 177.648 129.103 177.168 128.677 176.592C128.271 175.995 128.069 175.237 128.069 174.32C128.069 173.211 128.346 172.261 128.901 171.472C129.477 170.661 130.266 170.032 131.269 169.584C132.293 169.136 133.487 168.912 134.853 168.912C136.047 168.912 137.178 169.104 138.245 169.488C139.311 169.851 140.282 170.448 141.157 171.28L139.429 174C138.575 173.339 137.765 172.859 136.997 172.56C136.229 172.24 135.45 172.08 134.661 172.08C134.213 172.08 133.786 172.133 133.381 172.24C132.997 172.347 132.677 172.528 132.421 172.784C132.186 173.019 132.069 173.36 132.069 173.808C132.069 174.213 132.175 174.533 132.389 174.768C132.623 174.981 132.965 175.173 133.413 175.344C133.882 175.515 134.447 175.707 135.109 175.92C136.453 176.304 137.583 176.699 138.501 177.104C139.439 177.509 140.143 178.011 140.613 178.608C141.082 179.184 141.317 179.984 141.317 181.008C141.317 182.672 140.709 183.973 139.493 184.912C138.277 185.851 136.645 186.32 134.597 186.32ZM144.233 186V169.232H148.521V186H144.233ZM144.233 166.896V162.64H148.521V166.896H144.233ZM160.198 186.32C158.832 186.32 157.606 186.096 156.518 185.648C155.43 185.179 154.502 184.539 153.734 183.728C152.966 182.896 152.368 181.957 151.942 180.912C151.536 179.867 151.334 178.768 151.334 177.616C151.334 176.037 151.686 174.597 152.39 173.296C153.115 171.973 154.139 170.917 155.462 170.128C156.784 169.339 158.352 168.944 160.166 168.944C161.979 168.944 163.536 169.339 164.838 170.128C166.139 170.917 167.11 171.952 167.75 173.232L163.558 174.512C163.195 173.893 162.715 173.424 162.118 173.104C161.52 172.763 160.859 172.592 160.134 172.592C159.323 172.592 158.576 172.805 157.894 173.232C157.232 173.637 156.71 174.224 156.326 174.992C155.942 175.739 155.75 176.613 155.75 177.616C155.75 178.597 155.942 179.472 156.326 180.24C156.731 180.987 157.264 181.584 157.926 182.032C158.587 182.459 159.323 182.672 160.134 182.672C160.646 182.672 161.126 182.587 161.574 182.416C162.043 182.245 162.459 182.011 162.822 181.712C163.184 181.413 163.451 181.072 163.622 180.688L167.814 181.968C167.43 182.8 166.864 183.547 166.118 184.208C165.392 184.869 164.528 185.392 163.526 185.776C162.544 186.139 161.435 186.32 160.198 186.32Z" fill="white"/>
<path d="M123.5 143.167C106.961 143.166 90.9315 137.445 78.1286 126.975C65.3257 116.505 56.5374 101.93 53.2536 85.7204C49.9698 69.5108 52.3925 52.6644 60.111 38.0371C67.8296 23.4097 80.3689 11.9017 95.6034 5.46379C113.082 -1.74205 132.699 -1.75195 150.185 5.43624C167.671 12.6244 181.609 26.4287 188.966 43.8442C196.323 61.2596 196.503 80.8762 189.467 98.4236C182.431 115.971 168.748 130.029 151.397 137.536C142.573 141.275 133.083 143.19 123.5 143.167Z" fill="url(#paint1_linear_6_844)"/>
<path d="M110.794 115.836C98.9329 115.836 89.291 106.194 89.291 94.3329C89.291 82.4713 98.9329 72.8295 110.794 72.8295C122.656 72.8295 132.298 82.4713 132.298 94.3329C132.298 106.194 122.644 115.836 110.794 115.836ZM110.794 83.2343C108.599 83.2343 106.454 83.8853 104.628 85.1048C102.803 86.3243 101.381 88.0577 100.541 90.0857C99.7007 92.1137 99.4809 94.3452 99.9092 96.4981C100.337 98.651 101.394 100.629 102.947 102.181C104.499 103.733 106.476 104.79 108.629 105.218C110.782 105.646 113.014 105.427 115.042 104.587C117.07 103.747 118.803 102.324 120.023 100.499C121.242 98.6738 121.893 96.528 121.893 94.3329C121.89 91.3903 120.72 88.5691 118.639 86.4884C116.558 84.4077 113.737 83.2374 110.794 83.2343Z" fill="#24211B"/>
<path d="M127.096 99.5354C126.412 99.5369 125.735 99.4034 125.103 99.1425C124.471 98.8816 123.897 98.4985 123.413 98.0151C122.93 97.5317 122.547 96.9575 122.286 96.3257C122.025 95.6938 121.892 95.0166 121.893 94.333V35.0367C121.896 33.0784 122.675 31.2011 124.06 29.8164C125.445 28.4316 127.322 27.6523 129.281 27.6493H134.853C136.893 27.6407 138.895 28.2037 140.632 29.2743C142.369 30.345 143.771 31.8806 144.68 33.7072C146.68 37.7304 149.454 37.8229 151.651 37.4645C153.012 37.2376 154.408 37.5608 155.531 38.363C156.654 39.1652 157.413 40.3807 157.64 41.7421C157.867 43.1035 157.543 44.4992 156.741 45.6223C155.939 46.7454 154.723 47.5038 153.362 47.7307C148.842 48.4821 144.645 47.6382 141.223 45.2913C138.807 43.6265 136.83 41.2912 135.362 38.3547C135.313 38.2627 135.239 38.1859 135.15 38.1329C135.06 38.0798 134.957 38.0526 134.853 38.0541H132.298V94.333C132.298 95.7127 131.75 97.036 130.774 98.0117C129.799 98.9873 128.475 99.5354 127.096 99.5354Z" fill="#24211B"/>
<defs>
<filter id="filter0_b_6_844" x="-81.023" y="-17.023" width="409.046" height="310.046" filterUnits="userSpaceOnUse" color-interpolation-filters="sRGB">
<feFlood flood-opacity="0" result="BackgroundImageFix"/>
<feGaussianBlur in="BackgroundImageFix" stdDeviation="40.5115"/>
<feComposite in2="SourceAlpha" operator="in" result="effect1_backgroundBlur_6_844"/>
<feBlend mode="normal" in="SourceGraphic" in2="effect1_backgroundBlur_6_844" result="shape"/>
</filter>
<linearGradient id="paint0_linear_6_844" x1="462.569" y1="-118.098" x2="-23.8948" y2="226.129" gradientUnits="userSpaceOnUse">
<stop stop-color="white"/>
<stop offset="1" stop-color="white" stop-opacity="0"/>
</linearGradient>
<linearGradient id="paint1_linear_6_844" x1="123.222" y1="0.0522461" x2="123.222" y2="143.167" gradientUnits="userSpaceOnUse">
<stop stop-color="#882A2A"/>
<stop offset="0.0001" stop-color="#8B2626"/>
<stop offset="1" stop-color="#B25757"/>
</linearGradient>
</defs>
</svg>
