<svg width="247" height="203" viewBox="0 0 247 203" fill="none" xmlns="http://www.w3.org/2000/svg">
<g filter="url(#filter0_b_6_828)">
<rect y="55" width="247" height="148" rx="54.0153" fill="url(#paint0_linear_6_828)" fill-opacity="0.2"/>
</g>
<path d="M123.325 127.683C107.585 127.665 92.413 121.801 80.7521 111.229C69.0912 100.658 61.7726 86.1316 60.2159 70.469C58.6593 54.8065 62.9757 39.124 72.3278 26.4639C81.6798 13.8038 95.4008 5.06861 110.829 1.95279C126.257 -1.16303 142.293 1.56267 155.825 9.60116C169.357 17.6396 179.422 30.4178 184.065 45.4569C188.709 60.496 187.601 76.7239 180.957 90.9925C174.313 105.261 162.606 116.553 148.107 122.678C140.266 125.995 131.838 127.698 123.325 127.683Z" fill="url(#paint1_linear_6_828)"/>
<path d="M101.661 91.1844C100.724 91.1806 99.8093 90.8999 99.0313 90.3775C98.2534 89.8551 97.6472 89.1143 97.2891 88.2484C96.931 87.3824 96.837 86.4299 97.0187 85.5106C97.2005 84.5913 97.6501 83.7463 98.3108 83.0818L143.65 37.7428C144.09 37.3028 144.614 36.9539 145.189 36.7161C145.765 36.4782 146.381 36.356 147.004 36.3565C147.627 36.357 148.243 36.4801 148.819 36.7189C149.394 36.9577 149.916 37.3074 150.356 37.7481C150.796 38.1888 151.145 38.7119 151.383 39.2874C151.621 39.863 151.743 40.4797 151.743 41.1025C151.742 41.7252 151.619 42.3418 151.38 42.917C151.141 43.4921 150.792 44.0146 150.351 44.4546L105.012 89.7936C104.573 90.2349 104.051 90.585 103.476 90.8237C102.901 91.0624 102.284 91.185 101.661 91.1844Z" fill="#24211B"/>
<path d="M105.802 61.3659C104.781 61.3666 103.787 61.0377 102.968 60.4281L90.6507 51.2507C90.0597 50.8082 89.58 50.234 89.2495 49.5738C88.9191 48.9135 88.7471 48.1853 88.7471 47.447C88.7471 46.7087 88.9191 45.9805 89.2495 45.3203C89.58 44.66 90.0597 44.0859 90.6507 43.6433L102.968 34.466C103.467 34.0937 104.035 33.8236 104.639 33.6708C105.243 33.5181 105.871 33.4858 106.488 33.5758C107.104 33.6659 107.697 33.8764 108.232 34.1954C108.767 34.5145 109.234 34.9358 109.606 35.4353C109.978 35.9348 110.248 36.5028 110.401 37.1067C110.554 37.7106 110.586 38.3387 110.496 38.9551C110.406 39.5715 110.196 40.1641 109.876 40.6992C109.557 41.2342 109.136 41.7012 108.637 42.0734L101.419 47.447L108.637 52.8207C109.436 53.4159 110.028 54.2481 110.328 55.1989C110.628 56.1497 110.62 57.1708 110.306 58.1171C109.992 59.0634 109.388 59.8866 108.58 60.4699C107.771 61.0531 106.799 61.3666 105.802 61.3659Z" fill="#24211B"/>
<path d="M140.847 94.4718C139.85 94.4725 138.878 94.159 138.07 93.5758C137.261 92.9926 136.657 92.1693 136.343 91.223C136.029 90.2768 136.022 89.2557 136.321 88.3048C136.621 87.354 137.213 86.5218 138.013 85.9266L145.22 80.553L138.013 75.1793C137.499 74.8133 137.063 74.3485 136.731 73.812C136.399 73.2754 136.177 72.6781 136.079 72.0548C135.981 71.4316 136.008 70.7951 136.159 70.1825C136.31 69.5699 136.582 68.9936 136.958 68.4873C137.335 67.9811 137.809 67.5551 138.352 67.2343C138.895 66.9135 139.497 66.7043 140.122 66.6191C140.747 66.5338 141.383 66.5742 141.993 66.7378C142.602 66.9014 143.172 67.185 143.671 67.5719L155.999 76.7492C156.59 77.1918 157.069 77.766 157.4 78.4262C157.73 79.0865 157.902 79.8146 157.902 80.553C157.902 81.2913 157.73 82.0194 157.4 82.6797C157.069 83.3399 156.59 83.9141 155.999 84.3567L143.671 93.534C142.855 94.1422 141.865 94.471 140.847 94.4718Z" fill="#24211B"/>
<path d="M21.368 175V152.28H31C32.0453 152.28 33.0053 152.493 33.88 152.92C34.7547 153.347 35.512 153.923 36.152 154.648C36.8133 155.373 37.3253 156.184 37.688 157.08C38.0507 157.976 38.232 158.893 38.232 159.832C38.232 161.112 37.9333 162.328 37.336 163.48C36.7387 164.632 35.9173 165.571 34.872 166.296C33.8267 167.021 32.5893 167.384 31.16 167.384H25.784V175H21.368ZM25.784 163.512H30.904C31.4373 163.512 31.9173 163.363 32.344 163.064C32.7707 162.765 33.112 162.339 33.368 161.784C33.624 161.208 33.752 160.557 33.752 159.832C33.752 159.043 33.6027 158.371 33.304 157.816C33.0267 157.261 32.6533 156.845 32.184 156.568C31.736 156.291 31.2453 156.152 30.712 156.152H25.784V163.512ZM50.8735 161.944C49.5722 161.944 48.4095 162.2 47.3855 162.712C46.3615 163.203 45.6255 163.917 45.1775 164.856V175H40.8895V158.232H44.8255V161.816C45.4228 160.664 46.1802 159.757 47.0975 159.096C48.0148 158.435 48.9855 158.072 50.0095 158.008C50.2442 158.008 50.4255 158.008 50.5535 158.008C50.6815 158.008 50.7882 158.019 50.8735 158.04V161.944ZM60.7898 175.32C59.4244 175.32 58.1978 175.096 57.1098 174.648C56.0218 174.179 55.0938 173.539 54.3258 172.728C53.5791 171.917 53.0031 170.989 52.5978 169.944C52.1924 168.899 51.9898 167.8 51.9898 166.648C51.9898 165.475 52.1924 164.365 52.5978 163.32C53.0031 162.275 53.5791 161.347 54.3258 160.536C55.0938 159.725 56.0218 159.096 57.1098 158.648C58.1978 158.179 59.4244 157.944 60.7898 157.944C62.1551 157.944 63.3711 158.179 64.4378 158.648C65.5258 159.096 66.4538 159.725 67.2218 160.536C67.9898 161.347 68.5658 162.275 68.9498 163.32C69.3551 164.365 69.5578 165.475 69.5578 166.648C69.5578 167.8 69.3551 168.899 68.9498 169.944C68.5658 170.989 67.9898 171.917 67.2218 172.728C66.4751 173.539 65.5578 174.179 64.4698 174.648C63.3818 175.096 62.1551 175.32 60.7898 175.32ZM56.4058 166.648C56.4058 167.629 56.5978 168.504 56.9818 169.272C57.3658 170.019 57.8884 170.605 58.5498 171.032C59.2111 171.459 59.9578 171.672 60.7898 171.672C61.6004 171.672 62.3364 171.459 62.9978 171.032C63.6591 170.584 64.1818 169.987 64.5658 169.24C64.9711 168.472 65.1738 167.597 65.1738 166.616C65.1738 165.656 64.9711 164.792 64.5658 164.024C64.1818 163.256 63.6591 162.659 62.9978 162.232C62.3364 161.805 61.6004 161.592 60.7898 161.592C59.9578 161.592 59.2111 161.816 58.5498 162.264C57.8884 162.691 57.3658 163.288 56.9818 164.056C56.5978 164.803 56.4058 165.667 56.4058 166.648ZM79.012 175.096C77.9027 175.096 76.8787 174.883 75.94 174.456C75.0227 174.008 74.2227 173.389 73.54 172.6C72.8787 171.811 72.3667 170.904 72.004 169.88C71.6413 168.856 71.46 167.768 71.46 166.616C71.46 165.4 71.652 164.269 72.036 163.224C72.42 162.179 72.9533 161.261 73.636 160.472C74.34 159.661 75.1613 159.043 76.1 158.616C77.06 158.168 78.116 157.944 79.268 157.944C80.5693 157.944 81.7107 158.243 82.692 158.84C83.6733 159.416 84.484 160.195 85.124 161.176V158.232H88.868V174.2C88.868 175.864 88.4627 177.283 87.652 178.456C86.8627 179.651 85.764 180.557 84.356 181.176C82.948 181.816 81.348 182.136 79.556 182.136C77.7427 182.136 76.2067 181.827 74.948 181.208C73.6893 180.611 72.612 179.757 71.716 178.648L74.052 176.376C74.692 177.165 75.492 177.784 76.452 178.232C77.4333 178.68 78.468 178.904 79.556 178.904C80.4733 178.904 81.3053 178.733 82.052 178.392C82.82 178.072 83.428 177.56 83.876 176.856C84.3453 176.173 84.58 175.288 84.58 174.2V172.088C84.0253 173.048 83.236 173.795 82.212 174.328C81.2093 174.84 80.1427 175.096 79.012 175.096ZM80.452 171.672C80.9213 171.672 81.3693 171.597 81.796 171.448C82.2227 171.299 82.6173 171.096 82.98 170.84C83.3427 170.584 83.6627 170.285 83.94 169.944C84.2173 169.581 84.4307 169.219 84.58 168.856V164.856C84.324 164.195 83.9613 163.619 83.492 163.128C83.044 162.637 82.532 162.264 81.956 162.008C81.4013 161.731 80.8147 161.592 80.196 161.592C79.5347 161.592 78.9373 161.731 78.404 162.008C77.8707 162.285 77.412 162.68 77.028 163.192C76.644 163.683 76.3453 164.237 76.132 164.856C75.94 165.453 75.844 166.083 75.844 166.744C75.844 167.427 75.9613 168.067 76.196 168.664C76.4307 169.261 76.7507 169.784 77.156 170.232C77.5827 170.68 78.0733 171.032 78.628 171.288C79.204 171.544 79.812 171.672 80.452 171.672ZM102.717 161.944C101.416 161.944 100.253 162.2 99.2292 162.712C98.2053 163.203 97.4693 163.917 97.0213 164.856V175H92.7333V158.232H96.6693V161.816C97.2666 160.664 98.0239 159.757 98.9413 159.096C99.8586 158.435 100.829 158.072 101.853 158.008C102.088 158.008 102.269 158.008 102.397 158.008C102.525 158.008 102.632 158.019 102.717 158.04V161.944ZM103.863 170.04C103.863 168.952 104.161 168.003 104.759 167.192C105.377 166.36 106.231 165.72 107.319 165.272C108.407 164.824 109.655 164.6 111.062 164.6C111.767 164.6 112.481 164.653 113.207 164.76C113.932 164.867 114.561 165.037 115.095 165.272V164.376C115.095 163.309 114.775 162.488 114.135 161.912C113.516 161.336 112.588 161.048 111.351 161.048C110.433 161.048 109.559 161.208 108.727 161.528C107.895 161.848 107.02 162.317 106.103 162.936L104.727 160.12C105.836 159.395 106.967 158.851 108.119 158.488C109.292 158.125 110.519 157.944 111.799 157.944C114.188 157.944 116.044 158.541 117.367 159.736C118.711 160.931 119.383 162.637 119.383 164.856V170.2C119.383 170.648 119.457 170.968 119.607 171.16C119.777 171.352 120.044 171.469 120.407 171.512V175C120.023 175.064 119.671 175.117 119.351 175.16C119.052 175.203 118.796 175.224 118.583 175.224C117.729 175.224 117.079 175.032 116.631 174.648C116.204 174.264 115.937 173.795 115.831 173.24L115.735 172.376C115.009 173.315 114.103 174.04 113.015 174.552C111.927 175.064 110.817 175.32 109.687 175.32C108.577 175.32 107.575 175.096 106.679 174.648C105.804 174.179 105.111 173.549 104.599 172.76C104.108 171.949 103.863 171.043 103.863 170.04ZM114.295 170.904C114.529 170.648 114.721 170.392 114.871 170.136C115.02 169.88 115.095 169.645 115.095 169.432V167.736C114.583 167.523 114.028 167.363 113.431 167.256C112.833 167.128 112.268 167.064 111.735 167.064C110.625 167.064 109.708 167.309 108.983 167.8C108.279 168.269 107.927 168.899 107.927 169.688C107.927 170.115 108.044 170.52 108.279 170.904C108.513 171.288 108.855 171.597 109.303 171.832C109.751 172.067 110.284 172.184 110.903 172.184C111.543 172.184 112.172 172.067 112.791 171.832C113.409 171.576 113.911 171.267 114.295 170.904ZM149.438 175H145.15V165.592C145.15 164.269 144.915 163.299 144.446 162.68C143.998 162.04 143.368 161.72 142.558 161.72C141.726 161.72 140.926 162.051 140.158 162.712C139.411 163.352 138.878 164.195 138.558 165.24V175H134.27V165.592C134.27 164.248 134.035 163.267 133.566 162.648C133.118 162.029 132.488 161.72 131.678 161.72C130.846 161.72 130.046 162.04 129.278 162.68C128.531 163.32 127.998 164.163 127.678 165.208V175H123.39V158.232H127.262V161.336C127.902 160.248 128.755 159.416 129.822 158.84C130.888 158.243 132.115 157.944 133.502 157.944C134.888 157.944 135.966 158.285 136.734 158.968C137.523 159.651 138.024 160.493 138.238 161.496C138.92 160.344 139.784 159.469 140.83 158.872C141.896 158.253 143.091 157.944 144.414 157.944C145.459 157.944 146.302 158.136 146.942 158.52C147.603 158.883 148.115 159.384 148.478 160.024C148.84 160.643 149.086 161.347 149.214 162.136C149.363 162.925 149.438 163.725 149.438 164.536V175ZM179.219 175H174.931V165.592C174.931 164.269 174.696 163.299 174.227 162.68C173.779 162.04 173.149 161.72 172.339 161.72C171.507 161.72 170.707 162.051 169.939 162.712C169.192 163.352 168.659 164.195 168.339 165.24V175H164.051V165.592C164.051 164.248 163.816 163.267 163.347 162.648C162.899 162.029 162.269 161.72 161.459 161.72C160.627 161.72 159.827 162.04 159.059 162.68C158.312 163.32 157.779 164.163 157.459 165.208V175H153.171V158.232H157.043V161.336C157.683 160.248 158.536 159.416 159.603 158.84C160.669 158.243 161.896 157.944 163.283 157.944C164.669 157.944 165.747 158.285 166.515 158.968C167.304 159.651 167.805 160.493 168.019 161.496C168.701 160.344 169.565 159.469 170.611 158.872C171.677 158.253 172.872 157.944 174.195 157.944C175.24 157.944 176.083 158.136 176.723 158.52C177.384 158.883 177.896 159.384 178.259 160.024C178.621 160.643 178.867 161.347 178.995 162.136C179.144 162.925 179.219 163.725 179.219 164.536V175ZM182.952 175V158.232H187.24V175H182.952ZM182.952 155.896V151.64H187.24V155.896H182.952ZM206.692 175H202.404V165.592C202.404 164.248 202.17 163.267 201.7 162.648C201.231 162.029 200.58 161.72 199.748 161.72C199.172 161.72 198.586 161.869 197.988 162.168C197.412 162.467 196.89 162.883 196.42 163.416C195.951 163.928 195.61 164.525 195.396 165.208V175H191.108V158.232H194.98V161.336C195.407 160.611 195.951 160.003 196.612 159.512C197.274 159 198.031 158.616 198.884 158.36C199.759 158.083 200.676 157.944 201.636 157.944C202.682 157.944 203.535 158.136 204.196 158.52C204.879 158.883 205.391 159.384 205.732 160.024C206.095 160.643 206.34 161.347 206.468 162.136C206.618 162.925 206.692 163.725 206.692 164.536V175ZM216.981 175.096C215.871 175.096 214.847 174.883 213.909 174.456C212.991 174.008 212.191 173.389 211.509 172.6C210.847 171.811 210.335 170.904 209.973 169.88C209.61 168.856 209.429 167.768 209.429 166.616C209.429 165.4 209.621 164.269 210.005 163.224C210.389 162.179 210.922 161.261 211.605 160.472C212.309 159.661 213.13 159.043 214.069 158.616C215.029 158.168 216.085 157.944 217.237 157.944C218.538 157.944 219.679 158.243 220.661 158.84C221.642 159.416 222.453 160.195 223.093 161.176V158.232H226.837V174.2C226.837 175.864 226.431 177.283 225.621 178.456C224.831 179.651 223.733 180.557 222.325 181.176C220.917 181.816 219.317 182.136 217.525 182.136C215.711 182.136 214.175 181.827 212.917 181.208C211.658 180.611 210.581 179.757 209.685 178.648L212.021 176.376C212.661 177.165 213.461 177.784 214.421 178.232C215.402 178.68 216.437 178.904 217.525 178.904C218.442 178.904 219.274 178.733 220.021 178.392C220.789 178.072 221.397 177.56 221.845 176.856C222.314 176.173 222.549 175.288 222.549 174.2V172.088C221.994 173.048 221.205 173.795 220.181 174.328C219.178 174.84 218.111 175.096 216.981 175.096ZM218.421 171.672C218.89 171.672 219.338 171.597 219.765 171.448C220.191 171.299 220.586 171.096 220.949 170.84C221.311 170.584 221.631 170.285 221.909 169.944C222.186 169.581 222.399 169.219 222.549 168.856V164.856C222.293 164.195 221.93 163.619 221.461 163.128C221.013 162.637 220.501 162.264 219.925 162.008C219.37 161.731 218.783 161.592 218.165 161.592C217.503 161.592 216.906 161.731 216.373 162.008C215.839 162.285 215.381 162.68 214.997 163.192C214.613 163.683 214.314 164.237 214.101 164.856C213.909 165.453 213.813 166.083 213.813 166.744C213.813 167.427 213.93 168.067 214.165 168.664C214.399 169.261 214.719 169.784 215.125 170.232C215.551 170.68 216.042 171.032 216.597 171.288C217.173 171.544 217.781 171.672 218.421 171.672Z" fill="white"/>
<defs>
<filter id="filter0_b_6_828" x="-81.023" y="-26.023" width="409.046" height="310.046" filterUnits="userSpaceOnUse" color-interpolation-filters="sRGB">
<feFlood flood-opacity="0" result="BackgroundImageFix"/>
<feGaussianBlur in="BackgroundImageFix" stdDeviation="40.5115"/>
<feComposite in2="SourceAlpha" operator="in" result="effect1_backgroundBlur_6_828"/>
<feBlend mode="normal" in="SourceGraphic" in2="effect1_backgroundBlur_6_828" result="shape"/>
</filter>
<linearGradient id="paint0_linear_6_828" x1="462.569" y1="-127.098" x2="-23.8948" y2="217.129" gradientUnits="userSpaceOnUse">
<stop stop-color="white"/>
<stop offset="1" stop-color="white" stop-opacity="0"/>
</linearGradient>
<linearGradient id="paint1_linear_6_828" x1="123.398" y1="0.696106" x2="123.398" y2="127.683" gradientUnits="userSpaceOnUse">
<stop stop-color="#907E21"/>
<stop offset="1" stop-color="#3C7742"/>
</linearGradient>
</defs>
</svg>
