<svg width="247" height="208" viewBox="0 0 247 208" fill="none" xmlns="http://www.w3.org/2000/svg">
<g filter="url(#filter0_b_6_829)">
<rect y="60" width="247" height="148" rx="54.0153" fill="url(#paint0_linear_6_829)" fill-opacity="0.2"/>
</g>
<path d="M191.875 0.14093L179.896 129.885L127.999 143.859L76.1009 129.885L64.125 0.14093H191.875ZM167.738 26.5225H127.952H87.4623L89.3987 42.1903H127.952H130.118L127.952 43.0917L90.8078 58.5622L92.0396 73.8771L127.952 73.9935L147.201 74.0545L145.968 94.475L127.952 99.5473V99.5313L127.804 99.5724L110.405 95.1801L109.349 82.5041H109.292H93.1531H93.0963L95.2087 106.975L127.953 116.658V116.641L128.012 116.658L160.58 107.151L164.805 58.5622H127.953H127.862L127.953 58.5228L166.155 42.1903L167.738 26.5225Z" fill="url(#paint1_linear_6_829)"/>
<path d="M41.144 159.344H45.24L47.832 166.864L50.456 159.344H54.52L50.616 169.68L53.496 176.912L59.928 159.28H64.728L55.64 182H51.832L47.832 172.464L43.864 182H40.056L31 159.28H35.736L42.2 176.912L45.016 169.68L41.144 159.344ZM72.1655 182.32C70.8215 182.32 69.6055 182.096 68.5175 181.648C67.4295 181.179 66.5015 180.549 65.7335 179.76C64.9655 178.949 64.3682 178.032 63.9415 177.008C63.5362 175.963 63.3335 174.864 63.3335 173.712C63.3335 172.112 63.6855 170.651 64.3895 169.328C65.1148 168.005 66.1388 166.949 67.4615 166.16C68.8055 165.349 70.3842 164.944 72.1975 164.944C74.0322 164.944 75.6002 165.349 76.9015 166.16C78.2028 166.949 79.1948 168.005 79.8775 169.328C80.5815 170.629 80.9335 172.037 80.9335 173.552C80.9335 173.808 80.9228 174.075 80.9015 174.352C80.8802 174.608 80.8588 174.821 80.8375 174.992H67.8775C67.9628 175.845 68.2082 176.592 68.6135 177.232C69.0402 177.872 69.5735 178.363 70.2135 178.704C70.8748 179.024 71.5788 179.184 72.3255 179.184C73.1788 179.184 73.9788 178.981 74.7255 178.576C75.4935 178.149 76.0162 177.595 76.2935 176.912L79.9735 177.936C79.5682 178.789 78.9815 179.547 78.2135 180.208C77.4668 180.869 76.5815 181.392 75.5575 181.776C74.5335 182.139 73.4028 182.32 72.1655 182.32ZM67.7815 172.272H76.5495C76.4642 171.419 76.2188 170.683 75.8135 170.064C75.4295 169.424 74.9175 168.933 74.2775 168.592C73.6375 168.229 72.9228 168.048 72.1335 168.048C71.3655 168.048 70.6615 168.229 70.0215 168.592C69.4028 168.933 68.8908 169.424 68.4855 170.064C68.1015 170.683 67.8668 171.419 67.7815 172.272ZM93.0818 182.32C91.8018 182.32 90.6604 182.032 89.6578 181.456C88.6551 180.88 87.8658 180.091 87.2898 179.088V182H83.5458V158.64H87.8338V168.176C88.4311 167.173 89.2098 166.384 90.1698 165.808C91.1511 165.232 92.2924 164.944 93.5938 164.944C94.6818 164.944 95.6738 165.179 96.5698 165.648C97.4658 166.096 98.2338 166.725 98.8738 167.536C99.5351 168.347 100.036 169.275 100.378 170.32C100.74 171.365 100.922 172.485 100.922 173.68C100.922 174.875 100.719 175.995 100.314 177.04C99.9298 178.085 99.3858 179.013 98.6818 179.824C97.9778 180.613 97.1458 181.232 96.1858 181.68C95.2471 182.107 94.2124 182.32 93.0818 182.32ZM91.8978 178.672C92.5804 178.672 93.1991 178.544 93.7538 178.288C94.3298 178.011 94.8204 177.648 95.2258 177.2C95.6524 176.752 95.9724 176.229 96.1858 175.632C96.4204 175.013 96.5378 174.373 96.5378 173.712C96.5378 172.795 96.3458 171.952 95.9618 171.184C95.5991 170.395 95.0871 169.765 94.4258 169.296C93.7858 168.827 93.0284 168.592 92.1538 168.592C91.5351 168.592 90.9378 168.741 90.3618 169.04C89.8071 169.317 89.3058 169.701 88.8578 170.192C88.4311 170.683 88.0898 171.237 87.8338 171.856V175.856C87.9618 176.283 88.1644 176.667 88.4418 177.008C88.7404 177.349 89.0818 177.648 89.4658 177.904C89.8498 178.139 90.2444 178.331 90.6498 178.48C91.0764 178.608 91.4924 178.672 91.8978 178.672ZM111.931 182V159.28H120.187C122.661 159.28 124.731 159.792 126.395 160.816C128.059 161.819 129.307 163.184 130.139 164.912C130.971 166.619 131.387 168.517 131.387 170.608C131.387 172.912 130.928 174.917 130.011 176.624C129.093 178.331 127.792 179.653 126.107 180.592C124.443 181.531 122.469 182 120.187 182H111.931ZM126.939 170.608C126.939 169.136 126.672 167.845 126.139 166.736C125.605 165.605 124.837 164.731 123.835 164.112C122.832 163.472 121.616 163.152 120.187 163.152H116.347V178.128H120.187C121.637 178.128 122.864 177.808 123.867 177.168C124.869 176.507 125.627 175.611 126.139 174.48C126.672 173.328 126.939 172.037 126.939 170.608ZM142.197 182.32C140.853 182.32 139.637 182.096 138.549 181.648C137.461 181.179 136.533 180.549 135.765 179.76C134.997 178.949 134.399 178.032 133.973 177.008C133.567 175.963 133.365 174.864 133.365 173.712C133.365 172.112 133.717 170.651 134.421 169.328C135.146 168.005 136.17 166.949 137.493 166.16C138.837 165.349 140.415 164.944 142.229 164.944C144.063 164.944 145.631 165.349 146.933 166.16C148.234 166.949 149.226 168.005 149.909 169.328C150.613 170.629 150.965 172.037 150.965 173.552C150.965 173.808 150.954 174.075 150.933 174.352C150.911 174.608 150.89 174.821 150.869 174.992H137.909C137.994 175.845 138.239 176.592 138.645 177.232C139.071 177.872 139.605 178.363 140.245 178.704C140.906 179.024 141.61 179.184 142.357 179.184C143.21 179.184 144.01 178.981 144.757 178.576C145.525 178.149 146.047 177.595 146.325 176.912L150.005 177.936C149.599 178.789 149.013 179.547 148.245 180.208C147.498 180.869 146.613 181.392 145.589 181.776C144.565 182.139 143.434 182.32 142.197 182.32ZM137.813 172.272H146.581C146.495 171.419 146.25 170.683 145.845 170.064C145.461 169.424 144.949 168.933 144.309 168.592C143.669 168.229 142.954 168.048 142.165 168.048C141.397 168.048 140.693 168.229 140.053 168.592C139.434 168.933 138.922 169.424 138.517 170.064C138.133 170.683 137.898 171.419 137.813 172.272ZM159.753 182.32C158.324 182.32 156.958 182.085 155.657 181.616C154.356 181.147 153.236 180.453 152.297 179.536L153.833 176.752C154.836 177.563 155.817 178.16 156.777 178.544C157.758 178.928 158.697 179.12 159.593 179.12C160.425 179.12 161.086 178.971 161.577 178.672C162.089 178.373 162.345 177.925 162.345 177.328C162.345 176.923 162.206 176.613 161.929 176.4C161.652 176.165 161.246 175.963 160.713 175.792C160.201 175.621 159.572 175.429 158.825 175.216C157.588 174.811 156.553 174.416 155.721 174.032C154.889 173.648 154.26 173.168 153.833 172.592C153.428 171.995 153.225 171.237 153.225 170.32C153.225 169.211 153.502 168.261 154.057 167.472C154.633 166.661 155.422 166.032 156.425 165.584C157.449 165.136 158.644 164.912 160.009 164.912C161.204 164.912 162.334 165.104 163.401 165.488C164.468 165.851 165.438 166.448 166.313 167.28L164.585 170C163.732 169.339 162.921 168.859 162.153 168.56C161.385 168.24 160.606 168.08 159.817 168.08C159.369 168.08 158.942 168.133 158.537 168.24C158.153 168.347 157.833 168.528 157.577 168.784C157.342 169.019 157.225 169.36 157.225 169.808C157.225 170.213 157.332 170.533 157.545 170.768C157.78 170.981 158.121 171.173 158.569 171.344C159.038 171.515 159.604 171.707 160.265 171.92C161.609 172.304 162.74 172.699 163.657 173.104C164.596 173.509 165.3 174.011 165.769 174.608C166.238 175.184 166.473 175.984 166.473 177.008C166.473 178.672 165.865 179.973 164.649 180.912C163.433 181.851 161.801 182.32 159.753 182.32ZM169.39 182V165.232H173.678V182H169.39ZM169.39 162.896V158.64H173.678V162.896H169.39ZM184.106 182.096C182.996 182.096 181.972 181.883 181.034 181.456C180.116 181.008 179.316 180.389 178.634 179.6C177.972 178.811 177.46 177.904 177.098 176.88C176.735 175.856 176.554 174.768 176.554 173.616C176.554 172.4 176.746 171.269 177.13 170.224C177.514 169.179 178.047 168.261 178.73 167.472C179.434 166.661 180.255 166.043 181.194 165.616C182.154 165.168 183.21 164.944 184.362 164.944C185.663 164.944 186.804 165.243 187.786 165.84C188.767 166.416 189.578 167.195 190.218 168.176V165.232H193.962V181.2C193.962 182.864 193.556 184.283 192.746 185.456C191.956 186.651 190.858 187.557 189.45 188.176C188.042 188.816 186.442 189.136 184.65 189.136C182.836 189.136 181.3 188.827 180.042 188.208C178.783 187.611 177.706 186.757 176.81 185.648L179.146 183.376C179.786 184.165 180.586 184.784 181.546 185.232C182.527 185.68 183.562 185.904 184.65 185.904C185.567 185.904 186.399 185.733 187.146 185.392C187.914 185.072 188.522 184.56 188.97 183.856C189.439 183.173 189.674 182.288 189.674 181.2V179.088C189.119 180.048 188.33 180.795 187.306 181.328C186.303 181.84 185.236 182.096 184.106 182.096ZM185.546 178.672C186.015 178.672 186.463 178.597 186.89 178.448C187.316 178.299 187.711 178.096 188.074 177.84C188.436 177.584 188.756 177.285 189.034 176.944C189.311 176.581 189.524 176.219 189.674 175.856V171.856C189.418 171.195 189.055 170.619 188.586 170.128C188.138 169.637 187.626 169.264 187.05 169.008C186.495 168.731 185.908 168.592 185.29 168.592C184.628 168.592 184.031 168.731 183.498 169.008C182.964 169.285 182.506 169.68 182.122 170.192C181.738 170.683 181.439 171.237 181.226 171.856C181.034 172.453 180.938 173.083 180.938 173.744C180.938 174.427 181.055 175.067 181.29 175.664C181.524 176.261 181.844 176.784 182.25 177.232C182.676 177.68 183.167 178.032 183.722 178.288C184.298 178.544 184.906 178.672 185.546 178.672ZM213.411 182H209.123V172.592C209.123 171.248 208.888 170.267 208.419 169.648C207.95 169.029 207.299 168.72 206.467 168.72C205.891 168.72 205.304 168.869 204.707 169.168C204.131 169.467 203.608 169.883 203.139 170.416C202.67 170.928 202.328 171.525 202.115 172.208V182H197.827V165.232H201.699V168.336C202.126 167.611 202.67 167.003 203.331 166.512C203.992 166 204.75 165.616 205.603 165.36C206.478 165.083 207.395 164.944 208.355 164.944C209.4 164.944 210.254 165.136 210.915 165.52C211.598 165.883 212.11 166.384 212.451 167.024C212.814 167.643 213.059 168.347 213.187 169.136C213.336 169.925 213.411 170.725 213.411 171.536V182Z" fill="white"/>
<defs>
<filter id="filter0_b_6_829" x="-81.023" y="-21.023" width="409.046" height="310.046" filterUnits="userSpaceOnUse" color-interpolation-filters="sRGB">
<feFlood flood-opacity="0" result="BackgroundImageFix"/>
<feGaussianBlur in="BackgroundImageFix" stdDeviation="40.5115"/>
<feComposite in2="SourceAlpha" operator="in" result="effect1_backgroundBlur_6_829"/>
<feBlend mode="normal" in="SourceGraphic" in2="effect1_backgroundBlur_6_829" result="shape"/>
</filter>
<linearGradient id="paint0_linear_6_829" x1="462.569" y1="-122.098" x2="-23.8948" y2="222.129" gradientUnits="userSpaceOnUse">
<stop stop-color="white"/>
<stop offset="1" stop-color="white" stop-opacity="0"/>
</linearGradient>
<linearGradient id="paint1_linear_6_829" x1="128" y1="0.14093" x2="128" y2="143.859" gradientUnits="userSpaceOnUse">
<stop stop-color="#3E6899"/>
<stop offset="1" stop-color="#531A8C"/>
</linearGradient>
</defs>
</svg>
